<?xml version="1.0" encoding="utf-8"?>
<!-- Generator: Adobe Illustrator 25.0.0, SVG Export Plug-In . SVG Version: 6.00 Build 0)  -->
<svg version="1.1" id="OBJECTS" xmlns="http://www.w3.org/2000/svg" xmlns:xlink="http://www.w3.org/1999/xlink" x="0px" y="0px"
	 viewBox="0 0 630 630" style="enable-background:new 0 0 630 630;" xml:space="preserve">
<style type="text/css">
	.st0{fill:url(#SVGID_1_);}
	.st1{fill:url(#SVGID_2_);}
	.st2{fill:#AF950A;}
	.st3{fill:#D9C320;}
	.st4{fill:#FFFFFF;}
	.st5{fill:#F2F2F2;}
	.st6{fill:#211435;}
	.st7{fill:#FFEB2E;}
</style>
<linearGradient id="SVGID_1_" gradientUnits="userSpaceOnUse" x1="315" y1="627.5" x2="315" y2="2.5">
	<stop  offset="0" style="stop-color:#1C4B90"/>
	<stop  offset="1" style="stop-color:#00A3E0"/>
</linearGradient>
<circle class="st0" cx="315" cy="315" r="312.5"/>
<g>
	
		<linearGradient id="SVGID_2_" gradientUnits="userSpaceOnUse" x1="314.4046" y1="475.3138" x2="314.4046" y2="681.7666" gradientTransform="matrix(1 0 0 1 0 -284)">
		<stop  offset="0" style="stop-color:#1E529D"/>
		<stop  offset="0.42" style="stop-color:#143569"/>
		<stop  offset="1" style="stop-color:#091025"/>
	</linearGradient>
	<path class="st1" d="M314.4,125.5l-138.1,31.1v194.7c0,49.4,32.9,92.8,80.5,106.1l0,0c16.7,4.7,32.1,13.3,44.9,25.1l12.7,11.7
		l12.7-11.7c12.8-11.8,28.2-20.4,44.9-25.1l0,0c47.6-13.3,80.5-56.7,80.5-106.1V156.6L314.4,125.5L314.4,125.5z"/>
	<path class="st2" d="M312.7,470.4c-14.6-13.5-32.5-23.4-51.6-28.8c-40.4-11.2-68.6-48.4-68.6-90.3v-36.7l121.9-89l121.9,89v36.7
		c0,41.9-28.2,79.1-68.6,90.4c-19.1,5.3-37,15.3-51.6,28.8l-1.7,1.6C314.4,472,312.7,470.4,312.7,470.4z"/>
	<path class="st3" d="M316.1,470.4c14.6-13.5,32.4-23.4,51.6-28.8c40.4-11.3,68.6-48.5,68.6-90.4v-36.7l-121.9-89v246.4L316.1,470.4
		L316.1,470.4z"/>
	<path class="st4" d="M334.9,408.1c-2.1-1.2-8,3.7-13.1,9.8s-8.9,13.3-7.4,16.2s9.5,4.2,17.1,4.4c7.6,0.1,15.1-1,15.6-3.4
		s-6-3.5-12.6-4s-13.4-0.3-13.4-0.3s4.4-5.2,8.4-10.5C333.5,414.9,337,409.3,334.9,408.1L334.9,408.1z"/>
	<path class="st4" d="M360.3,398.4c-1.8-0.9-6.1,3.3-10.2,8.4s-7.6,11.1-6.4,13.6c1.2,2.6,7.9,3.9,14.7,3.9c6.7,0,13.5-1.5,13.9-3.6
		s-5.5-2.5-11.2-2.8c-5.8-0.3-11.5-0.2-11.5-0.2s3.9-4.3,7.1-8.9C359.7,404.1,362.1,399.3,360.3,398.4L360.3,398.4z"/>
	<path class="st4" d="M378.9,387.8c-1.6-0.5-3.9,3.6-6.5,8.3c-2.5,4.7-5.1,10-3.9,12.2c1.2,2.1,7.2,2.8,13.3,1.7
		c6.1-1,11.9-4.1,11.9-6c-0.1-1.9-5.3-0.7-10.4,0.1c-2.5,0.4-5,0.8-6.9,1c-1.9,0.3-3.1,0.4-3.1,0.4s0.7-1,1.7-2.6
		c1-1.5,2.1-3.7,3.1-5.9C379.9,392.6,380.6,388.2,378.9,387.8L378.9,387.8z"/>
	<path class="st4" d="M390.1,377c-1.4,0.1-2.3,3.9-3.1,8.1c-0.8,4.2-1.7,9-0.4,10.5c1.3,1.5,6.4,0.8,11.1-1.6c4.6-2.3,8.6-6.2,8-7.7
		c-0.3-0.7-1.4-0.6-2.9,0s-3.5,1.5-5.3,2.5c-3.9,1.9-7.7,3.5-7.7,3.5s1.4-3.9,1.8-7.8c0.1-2,0.2-3.9-0.1-5.3
		C391.3,377.8,390.8,377,390.1,377L390.1,377z"/>
	<path class="st4" d="M397.7,363.5c-1.1,0.4-1.2,3.9-1,7.6c0.1,0.9,0.2,1.9,0.3,2.8c0.1,0.9,0.2,1.8,0.4,2.5
		c0.4,1.6,0.9,2.8,1.6,3.2s2,0.1,3.6-0.6c0.8-0.4,1.6-0.9,2.4-1.4c0.8-0.6,1.6-1.3,2.4-2c3.1-2.9,5.4-6.5,4.7-7.5
		c-0.7-1-3.4,1.3-6.1,3.5c-1.3,1.2-2.7,2.3-3.6,3.2c-1,0.9-1.6,1.4-1.6,1.4s0-0.9,0-2.2c-0.1-1.3-0.1-2.9-0.4-4.6
		C399.9,366.2,398.8,363.1,397.7,363.5L397.7,363.5z"/>
	<path class="st4" d="M401.9,349.7c-1,0.5-0.7,3.7,0.2,7.1c0.8,3.3,2,6.8,3.4,7.2c1.5,0.5,4.4-1.9,6.7-4.8c2.2-2.9,3.9-6.3,3.1-7.1
		c-0.8-0.8-2.9,1.5-4.9,3.8c-2,2.4-3.9,4.8-3.9,4.8s-0.1-0.8-0.4-1.9c-0.2-1.1-0.6-2.6-1-4C404.1,351.9,402.8,349.3,401.9,349.7
		L401.9,349.7z"/>
	<path class="st4" d="M405.2,337.5c-0.7,0.4-0.3,3,0.6,5.5s2.1,5.1,3.3,5.3c1.2,0.2,3.2-1.9,4.6-4.2c1.5-2.3,2.5-4.9,1.9-5.5
		s-2.1,1.2-3.5,3.2c-1.4,1.9-2.6,3.9-2.6,3.9s-0.7-2.3-1.5-4.4C407.1,339.1,405.9,337,405.2,337.5z"/>
	<path class="st4" d="M410.8,332.3c0,0-0.6-1.7-1.4-3.3c-0.7-1.6-1.6-3-2.2-2.7c-1.1,0.7,1.7,7.8,3.4,7.9c1.8,0.2,5.4-6.7,4.4-7.5
		c-0.5-0.4-1.6,1-2.5,2.5C411.7,330.7,410.8,332.3,410.8,332.3L410.8,332.3z"/>
	<path class="st5" d="M281.7,435.1c0.5,2.4,8,3.5,15.6,3.4s15.6-1.4,17.1-4.4c1.5-2.9-2.4-10.2-7.4-16.2c-5-6.1-10.9-11-13.1-9.8
		c-2.1,1.2,1.4,6.8,5.3,12.2c4,5.4,8.4,10.5,8.4,10.5s-6.8-0.2-13.4,0.3C287.6,431.6,281.1,432.7,281.7,435.1L281.7,435.1z"/>
	<path class="st5" d="M256.6,420.7c0.4,2.1,7.2,3.7,13.9,3.6c6.7,0,13.5-1.4,14.7-3.9c1.2-2.6-2.4-8.5-6.4-13.6
		c-4.1-5.1-8.4-9.3-10.2-8.4c-1.8,0.9,0.5,5.8,3.8,10.4c3.2,4.6,7.1,8.9,7.1,8.9s-5.8-0.1-11.5,0.2
		C262.1,418.2,256.2,418.6,256.6,420.7L256.6,420.7z"/>
	<path class="st5" d="M235.1,403.9c-0.1,1.9,5.8,5,11.9,6c6.1,1.1,12.1,0.4,13.3-1.7c1.2-2.1-1.4-7.5-3.9-12.2
		c-2.6-4.7-4.8-8.7-6.5-8.3c-1.6,0.4-1,4.8,0.9,9.2c1,2.1,2.1,4.3,3.1,5.9s1.7,2.6,1.7,2.6s-1.2-0.1-3.1-0.4c-1.9-0.2-4.4-0.7-6.9-1
		C240.4,403.2,235.2,402,235.1,403.9L235.1,403.9z"/>
	<path class="st5" d="M223.1,386.3c-0.6,1.5,3.4,5.3,8,7.7c4.7,2.4,9.7,3.1,11.1,1.6s0.4-6.3-0.4-10.5c-0.9-4.3-1.7-8-3.1-8.1
		c-0.7,0-1.2,0.9-1.5,2.3s-0.2,3.3-0.1,5.3c0.4,3.9,1.8,7.8,1.8,7.8s-3.8-1.6-7.7-3.5c-1.9-1-3.9-1.9-5.3-2.5
		C224.4,385.7,223.3,385.5,223.1,386.3L223.1,386.3z"/>
	<path class="st5" d="M216.6,368.2c-0.7,1,1.6,4.7,4.7,7.6c0.8,0.7,1.6,1.4,2.4,2s1.7,1,2.4,1.4c1.5,0.7,2.8,1,3.6,0.6
		c0.7-0.4,1.3-1.7,1.6-3.2c0.2-0.8,0.3-1.7,0.4-2.5c0.1-0.9,0.2-1.9,0.3-2.8c0.3-3.7,0.2-7.2-1-7.6c-1.2-0.3-2.2,2.7-2.7,6
		c-0.3,1.7-0.3,3.3-0.4,4.6c-0.1,1.3,0,2.2,0,2.2s-0.7-0.5-1.6-1.4c-1-0.9-2.4-2-3.6-3.2C220,369.5,217.3,367.2,216.6,368.2
		L216.6,368.2z"/>
	<path class="st5" d="M213.5,352.1c-0.8,0.8,0.9,4.2,3.1,7.1c2.3,2.9,5.2,5.3,6.7,4.8c1.4-0.4,2.7-3.9,3.4-7.2
		c0.8-3.4,1.1-6.6,0.2-7.1c-1-0.5-2.3,2.2-3.1,5.1c-0.5,1.5-0.8,2.9-1,4c-0.2,1.1-0.4,1.9-0.4,1.9s-1.9-2.3-3.9-4.8
		C216.4,353.6,214.2,351.3,213.5,352.1L213.5,352.1z"/>
	<path class="st5" d="M213.3,338.5c-0.6,0.6,0.3,3.2,1.9,5.5c1.5,2.4,3.5,4.4,4.6,4.2c1.1-0.2,2.4-2.7,3.3-5.3
		c0.8-2.5,1.3-5.1,0.6-5.5s-1.9,1.6-2.7,3.7c-0.9,2.1-1.5,4.4-1.5,4.4s-1.2-2-2.6-3.9C215.3,339.8,213.9,337.9,213.3,338.5z"/>
	<path class="st5" d="M217.9,332.3c0,0-0.8-1.6-1.8-3.1s-2-2.9-2.5-2.5c-1,0.9,2.7,7.7,4.4,7.5c1.7-0.2,4.4-7.3,3.4-7.9
		c-0.5-0.4-1.4,1.1-2.2,2.7C218.6,330.6,217.9,332.3,217.9,332.3z"/>
	<polygon class="st2" points="280.7,484.6 283.7,490.9 290.5,492 285.5,496.8 286.6,503.7 280.5,500.3 274.3,503.5 275.5,496.7 
		270.6,491.7 277.5,490.8 	"/>
	<polygon class="st2" points="342.6,485.5 345.6,491.8 352.4,492.8 347.4,497.6 348.5,504.5 342.4,501.2 336.2,504.3 337.4,497.5 
		332.5,492.6 339.4,491.7 	"/>
	<path class="st6" d="M397.9,463.5c-2.6-1.3-9.4,4.6-16,11.4c-6.5,6.8-13.1,14.5-12,18.4c1,3.8,11.2,6.9,21.7,7.2
		c10.5,0.4,21-1.8,21.8-4.8s-8-3.6-16.7-4.2c-8.9-0.6-17.4-1.1-17.4-1.1s6.7-5.6,11.9-12.1C396.4,471.8,400.5,464.8,397.9,463.5
		L397.9,463.5z"/>
	<path class="st6" d="M428.2,448.8c-2.4-0.8-7.1,5.2-11.8,11.8c-4.6,6.7-8.9,14.2-7.4,17.2s10.3,4,19.2,2.9
		c8.8-1.1,17.4-4.5,17.7-7.2c0.2-2.6-7.3-1.9-14.7-1.1c-7.6,0.8-14.8,1.6-14.8,1.6s1.1-1.5,2.8-3.6c1.6-2.2,3.7-5.2,5.5-8.3
		C428.3,456,430.6,449.6,428.2,448.8L428.2,448.8z"/>
	<path class="st6" d="M450.6,431.6c-1.9-0.2-4.6,5.4-7.3,11.8c-2.7,6.3-5.2,13.4-3.5,15.7c1.7,2.4,9.4,1.9,16.9-0.7
		c7.4-2.6,14.3-7.4,14-9.9c-0.1-1.2-1.8-1.1-4.2-0.5c-2.4,0.5-5.5,1.7-8.6,2.7s-6.1,2.1-8.5,2.7c-2.3,0.7-3.8,1.2-3.8,1.2
		s3.1-5.7,4.9-11.5c0.9-2.9,1.5-5.8,1.6-7.9C452.1,433.2,451.6,431.7,450.6,431.6L450.6,431.6z"/>
	<path class="st6" d="M464.6,415c-0.9,0.1-1.6,1.5-2.3,3.6c-0.6,2.1-1.2,4.8-1.7,7.7c-0.4,2.9-0.8,5.8-0.8,8.3
		c0,2.4,0.2,4.3,1.2,5.1c0.9,0.8,2.9,0.7,5.4,0c2.4-0.8,5.3-2.1,8-3.9c5.4-3.4,9.9-8.3,9.2-10.1c-0.3-0.9-1.7-0.6-3.4,0.2
		c-1.8,0.8-4.2,2.2-6.4,3.6c-2.3,1.4-4.6,2.8-6.3,3.8c-1.7,1-2.9,1.7-2.9,1.7s0.3-1.3,0.7-3.2c0.4-1.9,0.8-4.5,1-7
		c0.2-2.6,0.2-5-0.1-6.9C466,416.1,465.5,414.9,464.6,415L464.6,415z"/>
	<path class="st6" d="M474.9,396.8c-0.7,0.2-1.2,1.5-1.5,3.3c-0.2,1.8-0.4,4.2-0.3,6.7c0.1,4.9,0.6,10.1,2.4,11
		c1.8,1,6.5-1.6,10.4-5.3c3.9-3.6,7-8.2,6.2-9.5c-0.8-1.4-4.3,1.5-7.6,4.4c-1.7,1.5-3.4,2.9-4.6,4c-1.3,1.1-2.1,1.8-2.1,1.8
		s0.1-1.1,0.1-2.8s0-3.8-0.2-6C477.3,400.3,476.4,396.3,474.9,396.8L474.9,396.8z"/>
	<path class="st6" d="M481,379c-0.6,0.3-0.8,1.5-0.8,3.2s0.2,3.8,0.6,6c0.3,2.2,0.8,4.4,1.5,6.1c0.6,1.7,1.3,3,2.1,3.3
		c0.9,0.3,2.2-0.3,3.8-1.4c1.5-1.1,3.2-2.8,4.7-4.7c1.5-1.9,2.7-3.9,3.5-5.6s1-3.1,0.6-3.6c-0.9-1.1-3.5,1.9-6.1,4.9
		c-2.6,3.1-5.1,6.1-5.1,6.1s-0.1-1-0.3-2.4c-0.2-1.5-0.5-3.4-1-5.3C483.6,381.9,482.1,378.4,481,379L481,379z"/>
	<path class="st6" d="M485.1,363.3c-0.4,0.3-0.5,1.2-0.3,2.5c0.1,1.3,0.5,2.9,1,4.5c1,3.2,2.4,6.5,3.8,6.8s3.9-2.4,5.7-5.5
		c0.9-1.5,1.7-3.2,2.1-4.5c0.4-1.4,0.5-2.4,0.1-2.8c-0.8-0.8-2.4,1.8-4.2,4.3c-0.8,1.3-1.6,2.6-2.2,3.6s-1,1.6-1,1.6
		s-0.2-0.7-0.5-1.8c-0.3-1.1-0.8-2.5-1.3-3.9C487.4,365.3,485.9,362.8,485.1,363.3L485.1,363.3z"/>
	<path class="st6" d="M491.7,356.4c0,0-0.8-2.1-1.9-4.1c-1-2-2.3-3.7-2.9-3.2s0.1,2.9,1.2,5.2c1,2.3,2.4,4.6,3.5,4.7
		c1,0,2.6-2.2,3.7-4.7c1-2.5,1.6-5.1,1-5.6s-1.8,1.5-2.8,3.5C492.6,354.3,491.7,356.4,491.7,356.4z"/>
	<path class="st6" d="M213.2,492.9c0.7,3,11.2,5.5,21.7,5.4c10.5,0,20.7-2.8,21.9-6.6c1.1-3.9-5.2-11.7-11.5-18.7
		c-6.4-7-13.1-13.1-15.7-11.8c-2.6,1.3,1.2,8.3,6.4,14.9c5.1,6.6,11.6,12.4,11.6,12.4s-8.5,0.3-17.5,0.6
		C221.3,489.5,212.5,489.9,213.2,492.9L213.2,492.9z"/>
	<path class="st6" d="M181.2,470c0.2,2.7,8.7,6.3,17.5,7.6c8.8,1.4,17.7,0.7,19.3-2.3s-2.6-10.7-7-17.4c-4.5-6.8-9.1-12.8-11.5-12.1
		c-2.4,0.7-0.3,7.1,3.2,13.4c1.7,3.1,3.7,6.2,5.3,8.4c1.6,2.2,2.7,3.7,2.7,3.7s-7.2-1-14.7-1.9C188.6,468.4,181.1,467.4,181.2,470
		L181.2,470z"/>
	<path class="st6" d="M157.1,444.3c-0.5,2.4,6.4,7.5,13.7,10.3c7.4,2.8,15.1,3.5,16.9,1.2c1.8-2.4-0.6-9.5-3.1-15.8
		c-2.4-6.5-4.9-12.1-6.9-12c-1,0.1-1.5,1.5-1.6,3.7c0,2.1,0.5,5,1.4,8c1.7,5.8,4.6,11.6,4.6,11.6s-1.5-0.5-3.8-1.3
		c-2.3-0.7-5.3-1.9-8.4-2.9c-3.1-1.1-6.1-2.3-8.5-2.9C158.9,443.3,157.2,443.2,157.1,444.3L157.1,444.3z"/>
	<path class="st6" d="M144.7,421.1c-0.7,1.8,3.7,6.8,9,10.3c2.6,1.8,5.5,3.3,7.9,4.1c2.5,0.8,4.5,0.9,5.4,0.2c1-0.8,1.3-2.7,1.3-5.1
		c0.1-2.5-0.2-5.4-0.6-8.3c-0.4-2.9-0.9-5.6-1.5-7.8c-0.6-2.1-1.3-3.5-2.2-3.6c-0.9-0.1-1.5,1-1.8,2.8c-0.3,1.8-0.4,4.3-0.2,6.9
		c0.2,2.5,0.5,5.1,0.8,7.1c0.4,1.9,0.7,3.2,0.7,3.2s-1.1-0.7-2.8-1.8c-1.7-1.1-3.9-2.6-6.2-4c-2.2-1.5-4.5-2.9-6.3-3.8
		C146.4,420.5,145.1,420.2,144.7,421.1L144.7,421.1z"/>
	<path class="st6" d="M136.9,398.2c-0.8,1.3,2.1,6,5.9,9.7s8.4,6.5,10.2,5.6s2.4-6.1,2.7-11c0.1-2.4,0-4.8-0.1-6.7
		c-0.2-1.8-0.7-3.1-1.4-3.4c-1.5-0.5-2.5,3.5-3,7.8c-0.2,2.1-0.3,4.3-0.3,5.9c0,1.7,0,2.8,0,2.8s-0.8-0.8-2-1.9
		c-1.2-1.1-2.8-2.7-4.5-4.2C141.1,399.8,137.7,396.9,136.9,398.2z"/>
	<path class="st6" d="M132.6,377.3c-0.5,0.5-0.2,1.9,0.5,3.6c0.8,1.7,2,3.8,3.4,5.7c1.5,1.9,3.1,3.6,4.5,4.8
		c1.5,1.2,2.9,1.8,3.8,1.5s1.6-1.5,2.2-3.3c0.7-1.7,1.2-3.9,1.6-6.1c0.4-2.2,0.7-4.3,0.8-5.9c0.1-1.7-0.1-2.9-0.7-3.2
		c-1.2-0.6-2.8,2.8-3.7,6.5c-0.5,1.9-0.9,3.8-1.1,5.2c-0.2,1.5-0.4,2.4-0.4,2.4s-2.4-3.1-4.9-6.3C136,379.3,133.5,376.2,132.6,377.3
		L132.6,377.3z"/>
	<path class="st6" d="M132.5,359.3c-0.4,0.4-0.3,1.4,0,2.8c0.4,1.4,1.1,3,2,4.6c1.7,3.2,4.2,5.9,5.5,5.7c1.4-0.2,2.9-3.5,4-6.7
		c0.6-1.6,1-3.2,1.2-4.5c0.2-1.3,0.2-2.2-0.2-2.5c-0.8-0.6-2.4,1.9-3.4,4.6c-0.6,1.4-1.1,2.8-1.4,3.9s-0.5,1.8-0.5,1.8
		s-0.4-0.7-1-1.7c-0.5-1-1.3-2.3-2.1-3.6C134.8,361.1,133.3,358.6,132.5,359.3L132.5,359.3z"/>
	<path class="st6" d="M138.6,351.6c0,0-0.9-2.1-1.8-4.2c-0.9-2.1-2-4.1-2.6-3.6c-0.6,0.5-0.1,3.1,0.9,5.6s2.5,4.8,3.6,4.8
		c1,0,2.5-2.3,3.6-4.6c1.2-2.3,1.9-4.7,1.3-5.2c-0.6-0.5-1.9,1.2-2.9,3.2C139.5,349.5,138.6,351.6,138.6,351.6L138.6,351.6z"/>
	<path class="st7" d="M314.4,205c-36.5,0-66.1,29.7-66.1,66.1s29.7,66.1,66.1,66.1s66.1-29.7,66.1-66.1S350.9,205,314.4,205z"/>
	<path class="st7" d="M412.7,271.1c0-4.8-15.5-8.4-16.3-13c-0.7-4.8,12.9-12.9,11.5-17.4c-1.5-4.5-17.4-3.1-19.5-7.3
		c-2.2-4.3,8.3-16.3,5.5-20.1c-2.8-3.9-17.5,2.4-20.8-0.9c-3.4-3.4,2.9-18-0.9-20.8s-15.8,7.7-20.1,5.5c-4.2-2.1-2.8-18-7.3-19.5
		s-12.6,12.2-17.4,11.5c-4.6-0.7-8.2-16.3-13-16.3c-4.8,0-8.4,15.5-13,16.3c-4.8,0.7-12.9-12.9-17.4-11.5
		c-4.5,1.5-3.1,17.4-7.3,19.5c-4.3,2.2-16.3-8.3-20.1-5.5c-3.9,2.8,2.4,17.5-0.9,20.8c-3.4,3.4-18-2.9-20.8,0.9
		c-2.8,3.8,7.7,15.8,5.5,20.1c-2.1,4.2-18,2.8-19.5,7.3s12.2,12.6,11.5,17.4c-0.7,4.6-16.3,8.2-16.3,13s15.5,8.4,16.3,13
		c0.7,4.8-12.9,12.9-11.5,17.4c1.5,4.5,17.4,3.1,19.5,7.3c2.2,4.3-8.3,16.3-5.5,20.1c2.8,3.9,17.5-2.4,20.8,0.9
		c3.4,3.4-2.9,18,0.9,20.8c3.8,2.8,15.8-7.7,20.1-5.5c4.2,2.1,2.8,18,7.3,19.5s12.6-12.2,17.4-11.5c4.6,0.7,8.2,16.3,13,16.3
		c4.8,0,8.4-15.5,13-16.3c4.8-0.7,12.9,12.9,17.4,11.5c4.5-1.5,3.1-17.4,7.3-19.5c4.3-2.2,16.3,8.3,20.1,5.5
		c3.9-2.8-2.4-17.5,0.9-20.8c3.3-3.3,18,2.9,20.8-0.9s-7.7-15.8-5.5-20.1c2.1-4.2,18-2.8,19.5-7.3s-12.2-12.6-11.5-17.4
		C397.2,279.5,412.7,276,412.7,271.1z M314.4,346.4c-41.5,0-75.3-33.8-75.3-75.3s33.8-75.3,75.3-75.3s75.3,33.8,75.3,75.3
		S355.9,346.4,314.4,346.4z"/>
</g>
</svg>
