<?xml version="1.0" encoding="utf-8"?>
<!-- Generator: Adobe Illustrator 25.0.0, SVG Export Plug-In . SVG Version: 6.00 Build 0)  -->
<svg version="1.1" id="OBJECTS" xmlns="http://www.w3.org/2000/svg" xmlns:xlink="http://www.w3.org/1999/xlink" x="0px" y="0px"
	 viewBox="0 0 630 630" style="enable-background:new 0 0 630 630;" xml:space="preserve">
<style type="text/css">
	.st0{fill:url(#SVGID_1_);}
	.st1{fill:#AF950A;}
	.st2{fill:url(#SVGID_2_);}
	.st3{fill:url(#SVGID_3_);}
	.st4{fill:url(#SVGID_4_);}
	.st5{fill:url(#SVGID_5_);}
	.st6{fill:#FFFFFF;}
	.st7{fill:#FFEB2E;}
	.st8{fill:#1E529D;}
</style>
<linearGradient id="SVGID_1_" gradientUnits="userSpaceOnUse" x1="315" y1="627.5" x2="315" y2="2.5">
	<stop  offset="0" style="stop-color:#1C4B90"/>
	<stop  offset="1" style="stop-color:#00A3E0"/>
</linearGradient>
<circle class="st0" cx="315" cy="315" r="312.5"/>
<g>
	<polyline class="st1" points="198.4,385.8 217.2,399.4 200.5,421.5 189.2,421.5 187.5,412.5 199.6,387.9 	"/>
	
		<linearGradient id="SVGID_2_" gradientUnits="userSpaceOnUse" x1="157.7649" y1="714.6682" x2="223.2747" y2="714.6682" gradientTransform="matrix(1 0 0 1 0 -284)">
		<stop  offset="0" style="stop-color:#FFEB2E"/>
		<stop  offset="0.81" style="stop-color:#D9C320"/>
	</linearGradient>
	<path class="st2" d="M195.5,417.4c-1.9,5.5-5,3-4.8-1.1c0.4-7.9,13.4-27.6,7.6-30.6c-6.5-3.4-12.5,26.9-24.3,44.3
		c-9.7,14.4-16.3,17-16.3,17s20.3,2.9,32.6,0.7c0,0,0.4,12.8-2.3,28.1c0,0,14.3-13.8,25.5-36.7c7.9-16.1,3.6-28.7,3.6-28.7
		L195.5,417.4L195.5,417.4z"/>
	<polyline class="st1" points="431.6,385.8 412.8,399.4 429.5,421.5 440.8,421.5 442.5,412.5 430.4,387.9 	"/>
	
		<linearGradient id="SVGID_3_" gradientUnits="userSpaceOnUse" x1="461.2566" y1="746.2315" x2="420.8179" y2="694.8481" gradientTransform="matrix(1 0 0 1 0 -284)">
		<stop  offset="0" style="stop-color:#FFEB2E"/>
		<stop  offset="0.8" style="stop-color:#D9C320"/>
	</linearGradient>
	<path class="st3" d="M434.5,417.4c1.9,5.5,5,3,4.8-1.1c-0.4-7.9-13.4-27.6-7.6-30.6c6.5-3.4,12.5,26.9,24.3,44.3
		c9.7,14.4,16.3,17,16.3,17s-15.8,2.9-28,0.7c0,0-7.3,12.8-4.6,28.1c0,0-14.3-13.8-25.5-36.7c-7.9-16.1-10.5-28.7-10.5-28.7
		L434.5,417.4L434.5,417.4z"/>
	
		<linearGradient id="SVGID_4_" gradientUnits="userSpaceOnUse" x1="319.374" y1="474.1149" x2="314.0032" y2="745.8801" gradientTransform="matrix(1 0 0 1 0 -284)">
		<stop  offset="0" style="stop-color:#1E529D"/>
		<stop  offset="0.42" style="stop-color:#143569"/>
		<stop  offset="1" style="stop-color:#091025"/>
	</linearGradient>
	<path class="st4" d="M437.4,135.3c-25,19.6-59.4,22.3-87.2,6.9l-30.1-16.7L290,142.2c-27.8,15.4-62.2,12.7-87.2-6.9L168,150.8
		l9.3,146.2c3.8,59.8,32.1,115.4,78.2,153.7l64.7,53.7l64.7-53.7C431,412.5,459.2,356.9,463,297l9.3-146.2L437.4,135.3L437.4,135.3z
		"/>
	
		<linearGradient id="SVGID_5_" gradientUnits="userSpaceOnUse" x1="185.15" y1="507.95" x2="319.95" y2="507.95" gradientTransform="matrix(1 0 0 1 0 -284)">
		<stop  offset="0" style="stop-color:#FFEB2E"/>
		<stop  offset="1" style="stop-color:#D9C320"/>
	</linearGradient>
	<path class="st5" d="M320,144.5L320,144.5l-22.1,12.2c-14.2,7.9-30.2,12-46.5,12c-17.9,0-35.5-5.1-50.6-14.4l-15.6,7l8.5,134.7
		c0.2,2.4,0.4,4.9,0.6,7.3h125.6L320,144.5L320,144.5z"/>
	<path class="st6" d="M320,482.8l54-44.9c40.5-33.6,66.3-82.4,71.6-134.6H320V482.8L320,482.8z"/>
	<path class="st7" d="M227.9,444.3c1,0.7,3.3,2.5,4.9-2.3c33.3-61.1,118.5-68.5,164.3-0.1l0.1-0.1l-0.1,0.2c1.6,4.9,3.9,3.1,4.9,2.3
		s35.9-24.1,35.9-24.1s-2,0.8-3.5-2.9c0,0,0,0,0-0.1l0,0c-63.3-102.7-187.8-96.5-239,0.1c-1.8,3.4-3.5,2.9-3.5,2.9
		S226.9,443.6,227.9,444.3L227.9,444.3z"/>
	<path class="st7" d="M386.8,191.6c-17.9,0-32.4,14.5-32.4,32.4s14.5,32.4,32.4,32.4s32.4-14.5,32.4-32.4S404.7,191.6,386.8,191.6z"
		/>
	<path class="st7" d="M434.9,224c0-2.4-7.6-4.1-8-6.4c-0.4-2.3,6.3-6.3,5.6-8.5c-0.7-2.2-8.5-1.5-9.5-3.6c-1.1-2.1,4.1-8,2.7-9.8
		c-1.4-1.9-8.6,1.2-10.2-0.5c-1.6-1.6,1.4-8.8-0.5-10.2s-7.8,3.8-9.8,2.7c-2.1-1.1-1.4-8.8-3.6-9.5s-6.2,6-8.5,5.6
		c-2.3-0.4-4-8-6.4-8s-4.1,7.6-6.4,8c-2.3,0.4-6.3-6.3-8.5-5.6s-1.5,8.5-3.6,9.5c-2.1,1.1-8-4.1-9.8-2.7c-1.9,1.4,1.2,8.6-0.5,10.2
		c-1.6,1.6-8.8-1.4-10.2,0.5s3.8,7.8,2.7,9.8c-1.1,2.1-8.8,1.4-9.5,3.6c-0.7,2.2,6,6.2,5.6,8.5c-0.4,2.3-8,4-8,6.4s7.6,4.1,8,6.4
		c0.4,2.3-6.3,6.3-5.6,8.5c0.7,2.2,8.5,1.5,9.5,3.6c1.1,2.1-4.1,8-2.7,9.8c1.4,1.9,8.6-1.2,10.2,0.5c1.6,1.7-1.4,8.8,0.5,10.2
		s7.8-3.8,9.8-2.7c2.1,1.1,1.4,8.8,3.6,9.5c2.2,0.7,6.2-6,8.5-5.6c2.3,0.4,4,8,6.4,8s4.1-7.6,6.4-8c2.3-0.4,6.3,6.3,8.5,5.6
		c2.2-0.7,1.5-8.5,3.6-9.5c2.1-1.1,8,4.1,9.8,2.7c1.9-1.4-1.2-8.6,0.5-10.2c1.6-1.6,8.8,1.4,10.2-0.5c1.4-1.9-3.8-7.8-2.7-9.8
		c1.1-2.1,8.8-1.4,9.5-3.6c0.7-2.2-6-6.2-5.6-8.5C427.2,228.2,434.9,226.4,434.9,224z M386.8,260.9c-20.3,0-36.9-16.5-36.9-36.9
		s16.5-36.9,36.9-36.9c20.3,0,36.9,16.5,36.9,36.9S407.1,260.9,386.8,260.9z"/>
	<path class="st8" d="M237.7,406.8l-3.1,3.4l3.2,4.3l-2.1,2.3l-1.7-1.6L221.9,398l2.4-2.6l18.2,10.3l1.7,1.6l-2.1,2.3L237.7,406.8
		L237.7,406.8z M232.8,407.6l2.3-2.6l-7.4-4.5l-0.2,0.2L232.8,407.6L232.8,407.6z"/>
	<path class="st8" d="M236.7,383.8l2.3-2l14.7,17.4l-2.3,1.9l-12.5-7.2l-0.2,0.2l8.8,10.3l-2.3,2l-14.7-17.3l2.3-1.9l12.5,7.2
		l0.2-0.2L236.7,383.8L236.7,383.8z"/>
	<path class="st8" d="M250.3,377.9l10.7,16.5l-2.9,1.9l-10.6-16.5l-3.4,2.2l-1.7-2.6l9.7-6.3l1.7,2.6L250.3,377.9z"/>
	<path class="st8" d="M268.3,379.5l-4,1.9l4.2,8.8l-3.1,1.4l-9.7-20.6l3.1-1.4l4.2,8.9l4-1.9l-4.2-8.9l3.1-1.4l9.7,20.6l-3.1,1.4
		L268.3,379.5z"/>
	<path class="st8" d="M270.5,364.6l9.2-3l0.9,3l-6,1.9l2,6.2l5.7-1.8l0.9,3l-5.7,1.8l2.1,6.6l6.1-2l0.9,3l-9.4,3L270.5,364.6
		L270.5,364.6z"/>
	<path class="st8" d="M283.9,360.5l3.3-0.7l4,19.2l5.9-1.2l0.6,3l-9.3,1.9L283.9,360.5L283.9,360.5z"/>
	<path class="st8" d="M298.8,380.8l-0.4-3.1l0.9-0.1l-2.1-16.4l-0.9,0.1l-0.4-3.1l5.3-0.7l0.4,3.1l-0.9,0.1l2.1,16.4l0.9-0.1
		l0.4,3.1L298.8,380.8z"/>
	<path class="st8" d="M317.1,375.6c0.1,2.4-0.9,3.3-2.3,3.9l-6.3,0.2c-1.4-0.5-2.5-1.3-2.6-3.7l-0.6-15.2c-0.1-2.4,0.9-3.3,2.3-3.9
		l6.3-0.2c1.4,0.5,2.5,1.3,2.6,3.7L317.1,375.6z M313,360.3l-0.7-0.7l-3,0.1l-0.7,0.7l0.6,15.7l0.7,0.7l3-0.1l0.7-0.7L313,360.3z"/>
	<path class="st8" d="M331,371.4l-0.3,4.9c-0.2,2.4-1.3,3.2-2.7,3.6l-6.3-0.4c-1.4-0.6-2.4-1.5-2.2-3.9l0.2-3.7l3.4,0.2l-0.2,4
		l0.7,0.7l3,0.2l0.7-0.7l0.3-5.3l-0.6-0.8l-4.9-1.8c-1.4-0.7-2.1-1.7-1.9-3.8l0.3-4.2c0.2-2.4,1.3-3.2,2.7-3.6l6.3,0.4
		c1.4,0.6,2.4,1.5,2.2,3.9l-0.2,3.7l-3.4-0.2l0.2-3.9l-0.7-0.7l-3-0.2l-0.7,0.7l-0.3,4.6l0.7,0.8l4.8,1.7
		C330.4,368.2,331.1,369.3,331,371.4L331,371.4z"/>
	<path class="st8" d="M341.5,358.8l3.3,0.7l-4,19.2l5.9,1.2l-0.6,3l-9.3-1.9L341.5,358.8L341.5,358.8z"/>
	<path class="st8" d="M354.2,361.8l9.2,3l-1,2.9l-6-2l-2,6.2l5.7,1.9l-1,2.9l-5.7-1.9l-2.2,6.6l6.1,2l-1,2.9l-9.4-3.1L354.2,361.8
		L354.2,361.8z"/>
	<path class="st8" d="M367.2,385.5l-4.2-2l-3.2,4.4l-2.8-1.3l1-2.1L371,368l3.2,1.5l-4.6,20.4l-1,2.1l-2.8-1.3L367.2,385.5
		L367.2,385.5z M365,381l3.1,1.5l2.2-8.4l-0.2-0.1L365,381z"/>
	<path class="st8" d="M371.4,393.8c-0.9-1.2-1.3-2.5,0-4.5l8.3-12.7c1.3-2,2.7-2.2,4.2-1.8l5.3,3.5c0.9,1.2,1.3,2.5,0,4.5l-2.2,3.4
		l-2.8-1.9l2.4-3.6l-0.2-1l-2.5-1.7l-1,0.2l-8.6,13.2l0.2,1l2.5,1.7l1-0.2l3-4.6l-1.8-1.2l1.7-2.6l4.7,3.1l-4.6,7
		c-1.3,2-2.7,2.2-4.2,1.8L371.4,393.8z"/>
	<path class="st8" d="M385.1,399.4l0.1,1l2.2,1.9l1-0.1l12.7-14.4l2.5,2.2l-12.5,14.2c-1.6,1.8-3,1.8-4.4,1.2l-4.6-4.1
		c-0.7-1.3-0.9-2.7,0.7-4.5l12.5-14.2l2.6,2.3L385.1,399.4L385.1,399.4z"/>
	<path class="st8" d="M407,393.5l6.4,7.3l-2.3,2.1l-4.2-4.7l-4.9,4.3l3.9,4.5l-2.3,2.1l-3.9-4.5l-5.2,4.6l4.3,4.8l-2.3,2.1l-6.5-7.4
		L407,393.5L407,393.5z"/>
</g>
</svg>
