<?xml version="1.0" encoding="utf-8"?>
<!-- Generator: Adobe Illustrator 25.0.0, SVG Export Plug-In . SVG Version: 6.00 Build 0)  -->
<svg version="1.1" id="OBJECTS" xmlns="http://www.w3.org/2000/svg" xmlns:xlink="http://www.w3.org/1999/xlink" x="0px" y="0px"
	 viewBox="0 0 630 630" style="enable-background:new 0 0 630 630;" xml:space="preserve">
<style type="text/css">
	.st0{fill:url(#SVGID_1_);}
	.st1{fill:url(#SVGID_2_);}
	.st2{fill:url(#SVGID_3_);}
	.st3{fill:#FFFFFF;}
	.st4{fill:#FFEB2E;}
	.st5{fill:url(#SVGID_4_);}
	.st6{fill:url(#SVGID_5_);}
</style>
<linearGradient id="SVGID_1_" gradientUnits="userSpaceOnUse" x1="315" y1="627.5" x2="315" y2="2.5">
	<stop  offset="0" style="stop-color:#1C4B90"/>
	<stop  offset="1" style="stop-color:#00A3E0"/>
</linearGradient>
<circle class="st0" cx="315" cy="315" r="312.5"/>
<g>
	
		<linearGradient id="SVGID_2_" gradientUnits="userSpaceOnUse" x1="314.0458" y1="448.547" x2="308.0036" y2="694.8555" gradientTransform="matrix(1 0 0 1 0 -284)">
		<stop  offset="0" style="stop-color:#1E529D"/>
		<stop  offset="0.42" style="stop-color:#143569"/>
		<stop  offset="1" style="stop-color:#091025"/>
	</linearGradient>
	<path class="st1" d="M315,125.4l-149.2,0.2l6.2,195.2c1.6,50.3,26.1,97.1,66.6,127.1l76.4,56.6l76.4-56.6
		c40.4-30,64.9-76.8,66.6-127.1l6.2-195.2L315,125.4L315,125.4z"/>
	
		<linearGradient id="SVGID_3_" gradientUnits="userSpaceOnUse" x1="316.1955" y1="579.9364" x2="325.1048" y2="1070.1838" gradientTransform="matrix(1 0 0 1 0 -284)">
		<stop  offset="0" style="stop-color:#00A3E0"/>
		<stop  offset="6.000000e-02" style="stop-color:#0496D5"/>
		<stop  offset="0.41" style="stop-color:#1E529D"/>
	</linearGradient>
	<path class="st2" d="M185,224.6l3,95.7c1.4,45.7,23.3,87.5,60.1,114.7l66.8,49.5l66.8-49.5c36.7-27.2,58.6-69,60.1-114.7l3-95.7
		C444.9,224.6,185,224.6,185,224.6z"/>
	<path class="st3" d="M280.2,447.2c0.1,2.6,8.3,5.6,16.9,6.2c4.2,0.4,8.6,0.3,12.1-0.4c3.5-0.7,6.1-1.8,6.9-3.4
		c0.9-1.6,0.4-4.5-0.8-7.7c-1.2-3.2-3.1-6.8-5.1-10.3c-2.1-3.4-4.3-6.6-6.2-8.8c-2-2.2-3.7-3.4-5-2.9c-2.4,1-0.3,7.4,2.8,13.8
		c1.6,3.1,3.4,6.1,4.9,8.4c0.7,1.2,1.3,2.1,1.8,2.7c0.5,0.6,0.7,1,0.7,1s-0.5,0-1.3-0.1c-0.8-0.1-1.9-0.1-3.3-0.2
		c-2.7-0.2-6.3-0.5-10-0.6C287.5,444.5,280,444.5,280.2,447.2L280.2,447.2z"/>
	<path class="st3" d="M257,426c-0.2,2.3,6.4,5.5,13.6,6.9c3.6,0.8,7.2,1.1,10.3,0.9c3-0.2,5.3-0.9,6.2-2.2c0.9-1.3,0.8-3.7,0.1-6.6
		c-0.7-2.8-1.9-6.2-3.3-9.3c-2.9-6.2-6.1-11.8-8.3-11.1c-2.2,0.6-0.9,6.3,1.1,12c1.1,2.8,2.3,5.5,3.3,7.6c1,2.1,1.7,3.4,1.7,3.4
		s-1.5-0.3-3.8-0.8c-2.3-0.5-5.3-1-8.4-1.5C263.4,424.5,257.2,423.8,257,426L257,426z"/>
	<path class="st3" d="M238.8,405.8c-0.5,2,5.1,5.2,11,7.3c6,1.9,12.5,2.6,14.3,0.5c1.8-2.1,0.6-8.4-1.2-14
		c-1.7-5.7-4.3-10.6-6.1-10.4c-1.9,0.3-1.5,5.4-0.2,10.4c0.6,2.5,1.4,5.1,2,6.9c0.7,1.9,1.2,3.1,1.2,3.1s-1.3-0.4-3.2-1
		c-1.9-0.6-4.4-1.4-7-2.1C244.5,405,239.3,403.8,238.8,405.8L238.8,405.8z"/>
	<path class="st3" d="M227.3,388.8c-0.5,1.6,3.8,4.6,8.5,6.8c4.8,2.1,10.1,3.1,11.8,1.6c1.7-1.6,1.2-6.8,0.1-11.6
		c-0.9-4.9-2.7-9.1-4.2-9.1c-0.8,0-1.2,1.1-1.3,2.7c-0.1,1.6,0.1,3.7,0.4,5.8c0.3,2.1,0.7,4.3,1.1,5.9c0.5,1.6,0.7,2.6,0.7,2.6
		s-1-0.4-2.6-1c-1.5-0.7-3.5-1.5-5.6-2.3s-4.2-1.5-5.9-1.9C228.7,388,227.5,388,227.3,388.8L227.3,388.8z"/>
	<path class="st3" d="M217.8,372c-0.5,1.3,2.8,4.2,6.5,6.4c3.9,2.1,8.2,3.4,9.7,2.3c1.5-1.1,1.6-5.6,1.1-9.6c-0.4-4.1-1.4-7.9-2.8-8
		c-1.4,0-1.6,3.4-1.5,7.1c0.1,3.6,0.8,7.3,0.8,7.3s-3.2-1.7-6.5-3.5C221.8,372.2,218.3,370.8,217.8,372L217.8,372z"/>
	<path class="st3" d="M210.4,356.6c-0.5,1.1,1.9,4.1,5.2,6.3c3.2,2.2,6.9,3.8,8.3,2.9c1.4-0.9,2-4.9,1.9-8.5
		c-0.2-3.6-0.5-7.2-1.8-7.3c-1.2-0.2-1.8,3-2,6.2c-0.1,3.2,0.2,6.5,0.2,6.5s-2.7-1.9-5.6-3.6C213.8,357.2,211,355.5,210.4,356.6
		L210.4,356.6z"/>
	<path class="st3" d="M206.2,342.8c-0.5,0.8,1.3,3.2,3.5,5.1c2.2,2,5,3.4,6.2,2.9c1.2-0.6,1.7-3.5,2-6.4c0.3-2.8,0-5.5-0.9-5.7
		c-0.9-0.2-1.5,2.1-1.9,4.6c-0.4,2.4-0.5,5-0.5,5s-1.8-1.7-3.8-3.2S206.7,342,206.2,342.8L206.2,342.8z"/>
	<path class="st3" d="M209.7,335c0,0-1.3-1.4-2.7-2.7c-1.4-1.3-2.9-2.5-3.4-1.9c-0.9,1.1,4.9,7.3,6.7,6.6c1.8-0.7,3-8.6,1.7-9
		c-0.7-0.2-1.3,1.5-1.7,3.3C209.9,333.1,209.7,335,209.7,335L209.7,335z"/>
	<path class="st3" d="M333.3,419.8c-1.2-0.5-3,0.7-5,2.9c-1.9,2.3-4.1,5.4-6.2,8.8c-2,3.5-3.9,7.1-5.1,10.3s-1.7,6.1-0.8,7.7
		c0.9,1.6,3.5,2.8,6.9,3.4c3.5,0.6,7.9,0.8,12.1,0.4c8.6-0.7,16.8-3.6,16.9-6.2c0.1-2.7-7.4-2.7-14.5-2.3c-3.7,0.1-7.3,0.4-10,0.6
		c-1.4,0.1-2.5,0.2-3.3,0.2c-0.8,0-1.3,0.1-1.3,0.1s0.3-0.4,0.7-1c0.5-0.6,1.1-1.6,1.8-2.7c1.4-2.3,3.2-5.3,4.9-8.4
		C333.5,427.2,335.7,420.8,333.3,419.8L333.3,419.8z"/>
	<path class="st3" d="M356.7,404.8c-2.2-0.6-5.5,5-8.3,11.1c-1.4,3.2-2.6,6.5-3.3,9.3c-0.7,2.8-0.8,5.3,0.1,6.6
		c0.9,1.3,3.2,2,6.2,2.2s6.7-0.1,10.3-0.9c7.2-1.4,13.8-4.7,13.6-6.9c-0.2-2.3-6.5-1.6-12.5-0.5c-3.1,0.5-6.1,1-8.4,1.5
		c-2.3,0.5-3.8,0.8-3.8,0.8s0.7-1.4,1.7-3.4c1-2.1,2.2-4.8,3.3-7.6C357.6,411,358.8,405.3,356.7,404.8L356.7,404.8z"/>
	<path class="st3" d="M375.4,389.2c-1.8-0.2-4.4,4.7-6.1,10.4c-1.8,5.6-3,11.9-1.2,14c1.8,2,8.2,1.4,14.3-0.5c5.9-2,11.5-5.2,11-7.3
		c-0.4-2-5.6-0.7-10.8,0.7c-2.6,0.7-5.1,1.6-7,2.1c-1.9,0.6-3.2,1-3.2,1s0.5-1.2,1.2-3.1c0.7-1.8,1.4-4.4,2-6.9
		C377,394.5,377.4,389.5,375.4,389.2L375.4,389.2z"/>
	<path class="st3" d="M388.9,376.5c-1.5,0-3.3,4.2-4.2,9.1c-1,4.8-1.6,10,0.1,11.6c1.6,1.5,7,0.5,11.8-1.6c4.7-2.2,9.1-5.2,8.5-6.8
		c-0.2-0.8-1.4-0.8-3.1-0.5s-3.8,1.1-5.9,1.9s-4.1,1.7-5.6,2.3c-1.6,0.6-2.6,1-2.6,1s0.3-1,0.7-2.6c0.4-1.6,0.8-3.8,1.1-5.9
		c0.3-2.1,0.5-4.2,0.4-5.8C390.1,377.5,389.7,376.5,388.9,376.5L388.9,376.5z"/>
	<path class="st3" d="M400.1,363.1c-1.4,0-2.4,3.8-2.8,8c-0.5,4.1-0.5,8.5,1.1,9.6c1.5,1.1,5.8-0.2,9.7-2.3c3.7-2.2,7-5.1,6.5-6.4
		s-4,0.2-7.3,1.9c-3.4,1.8-6.5,3.5-6.5,3.5s0.7-3.6,0.8-7.3C401.7,366.5,401.5,363,400.1,363.1L400.1,363.1z"/>
	<path class="st3" d="M408.3,350c-1.2,0.1-1.6,3.7-1.8,7.3c-0.1,3.7,0.4,7.7,1.9,8.5c1.4,0.9,5.1-0.7,8.3-2.9
		c3.3-2.2,5.8-5.2,5.2-6.3c-0.6-1.1-3.5,0.6-6.2,2.4c-2.9,1.7-5.6,3.6-5.6,3.6s0.3-3.3,0.2-6.5C410.1,353,409.4,349.8,408.3,350
		L408.3,350z"/>
	<path class="st3" d="M415.2,338.6c-0.9,0.2-1.1,2.9-0.9,5.7c0.4,2.9,0.8,5.8,2,6.4c1.1,0.5,4-0.9,6.2-2.9s4.1-4.3,3.5-5.1
		c-0.5-0.8-2.7,0.7-4.6,2.2c-2,1.6-3.8,3.2-3.8,3.2s-0.1-2.6-0.5-5C416.7,340.6,416.1,338.3,415.2,338.6L415.2,338.6z"/>
	<path class="st3" d="M422.6,335c0,0-0.2-1.9-0.6-3.7s-1-3.5-1.7-3.3c-1.3,0.4-0.1,8.3,1.7,9c1.8,0.7,7.6-5.4,6.7-6.6
		c-0.4-0.5-2,0.6-3.4,1.9C423.9,333.6,422.6,335,422.6,335L422.6,335z"/>
	<circle class="st4" cx="227.5" cy="172" r="14.9"/>
	<path class="st4" d="M249.6,172c0-1.1-3.5-1.9-3.7-2.9c-0.2-1.1,2.9-2.9,2.6-3.9c-0.3-1-3.9-0.7-4.4-1.6s1.9-3.6,1.2-4.5
		c-0.6-0.9-3.9,0.5-4.7-0.2c-0.8-0.8,0.7-4.1-0.2-4.7c-0.9-0.6-3.6,1.7-4.5,1.2c-0.9-0.5-0.6-4.1-1.6-4.4c-1-0.3-2.8,2.7-3.9,2.6
		c-1-0.2-1.8-3.7-2.9-3.7c-1.1,0-1.9,3.5-2.9,3.7c-1.1,0.2-2.9-2.9-3.9-2.6s-0.7,3.9-1.6,4.4c-0.9,0.5-3.6-1.9-4.5-1.2
		c-0.9,0.7,0.5,3.9-0.2,4.7c-0.8,0.8-4.1-0.7-4.7,0.2c-0.6,0.9,1.7,3.6,1.2,4.5s-4.1,0.6-4.4,1.6s2.7,2.8,2.6,3.9
		c-0.2,1-3.7,1.8-3.7,2.9c0,1.1,3.5,1.9,3.7,2.9c0.2,1.1-2.9,2.9-2.6,3.9s3.9,0.7,4.4,1.6s-1.9,3.6-1.2,4.5c0.7,0.9,3.9-0.5,4.7,0.2
		c0.8,0.8-0.7,4.1,0.2,4.7s3.6-1.7,4.5-1.2c0.9,0.5,0.6,4.1,1.6,4.4c1,0.3,2.8-2.7,3.9-2.6c1,0.2,1.8,3.7,2.9,3.7
		c1.1,0,1.9-3.5,2.9-3.7c1.1-0.2,2.9,2.9,3.9,2.6c1-0.3,0.7-3.9,1.6-4.4c0.9-0.5,3.6,1.9,4.5,1.2s-0.5-3.9,0.2-4.7
		c0.8-0.8,4.1,0.7,4.7-0.2c0.6-0.9-1.7-3.6-1.2-4.5s4.1-0.6,4.4-1.6c0.3-1-2.7-2.8-2.6-3.9C246,173.9,249.6,173.1,249.6,172z
		 M227.4,188.9c-9.3,0-16.9-7.6-16.9-16.9c0-9.3,7.6-16.9,16.9-16.9c9.3,0,16.9,7.6,16.9,16.9C244.3,181.4,236.8,188.9,227.4,188.9z
		"/>
	<circle class="st4" cx="313.9" cy="172" r="14.9"/>
	<path class="st4" d="M336,172c0-1.1-3.5-1.9-3.7-2.9c-0.2-1.1,2.9-2.9,2.6-3.9s-3.9-0.7-4.4-1.6s1.9-3.6,1.2-4.5
		c-0.6-0.9-3.9,0.5-4.7-0.2c-0.8-0.7,0.7-4.1-0.2-4.7c-0.9-0.6-3.6,1.7-4.5,1.2s-0.6-4.1-1.6-4.4c-1-0.3-2.8,2.7-3.9,2.6
		c-1-0.2-1.8-3.7-2.9-3.7c-1.1,0-1.9,3.5-2.9,3.7c-1.1,0.2-2.9-2.9-3.9-2.6s-0.7,3.9-1.6,4.4s-3.6-1.9-4.5-1.2
		c-0.9,0.6,0.5,3.9-0.2,4.7c-0.8,0.8-4.1-0.7-4.7,0.2c-0.6,0.9,1.7,3.6,1.2,4.5s-4.1,0.6-4.4,1.6s2.7,2.8,2.6,3.9
		c-0.2,1-3.7,1.8-3.7,2.9c0,1.1,3.5,1.9,3.7,2.9c0.2,1.1-2.9,2.9-2.6,3.9c0.3,1,3.9,0.7,4.4,1.6s-1.9,3.6-1.2,4.5
		c0.6,0.9,3.9-0.5,4.7,0.2c0.8,0.8-0.7,4.1,0.2,4.7s3.6-1.7,4.5-1.2s0.6,4.1,1.6,4.4c1,0.3,2.8-2.7,3.9-2.6c1,0.2,1.8,3.7,2.9,3.7
		c1.1,0,1.9-3.5,2.9-3.7c1.1-0.2,2.9,2.9,3.9,2.6c1-0.3,0.7-3.9,1.6-4.4c0.9-0.5,3.6,1.9,4.5,1.2c0.9-0.6-0.5-3.9,0.2-4.7
		c0.8-0.8,4.1,0.7,4.7-0.2c0.6-0.9-1.7-3.6-1.2-4.5s4.1-0.6,4.4-1.6c0.3-1-2.7-2.8-2.6-3.9C332.5,173.9,336,173.1,336,172z
		 M313.9,188.9c-9.3,0-16.9-7.6-16.9-16.9c0-9.3,7.6-16.9,16.9-16.9s16.9,7.6,16.9,16.9C330.8,181.4,323.3,188.9,313.9,188.9z"/>
	
		<ellipse transform="matrix(0.9871 -0.1602 0.1602 0.9871 -22.3903 66.3659)" class="st4" cx="400.4" cy="172" rx="14.9" ry="14.9"/>
	<path class="st4" d="M422.5,172c0-1.1-3.5-1.9-3.7-2.9c-0.2-1.1,2.9-2.9,2.6-3.9s-3.9-0.7-4.4-1.6s1.9-3.6,1.2-4.5
		c-0.6-0.9-3.9,0.5-4.7-0.2s0.7-4.1-0.2-4.7c-0.9-0.6-3.6,1.7-4.5,1.2s-0.6-4.1-1.6-4.4c-1-0.3-2.8,2.7-3.9,2.6
		c-1-0.2-1.8-3.7-2.9-3.7s-1.9,3.5-2.9,3.6c-1.1,0.2-2.9-2.9-3.9-2.6s-0.7,3.9-1.6,4.4s-3.6-1.9-4.5-1.2c-0.9,0.6,0.5,3.9-0.2,4.7
		c-0.7,0.8-4.1-0.7-4.7,0.2c-0.6,0.9,1.7,3.6,1.2,4.5c-0.5,0.9-4.1,0.6-4.4,1.6s2.7,2.8,2.6,3.9c-0.2,1-3.7,1.8-3.7,2.9
		s3.5,1.9,3.7,2.9c0.2,1.1-2.9,2.9-2.6,3.9s3.9,0.7,4.4,1.6c0.5,0.9-1.9,3.6-1.2,4.5c0.7,0.9,3.9-0.5,4.7,0.2
		c0.8,0.8-0.7,4.1,0.2,4.7c0.9,0.6,3.6-1.7,4.5-1.2s0.6,4.1,1.6,4.4s2.8-2.7,3.9-2.6c1,0.2,1.8,3.7,2.9,3.7s1.9-3.5,2.9-3.7
		c1.1-0.2,2.9,2.9,3.9,2.6s0.7-3.9,1.6-4.4s3.6,1.9,4.5,1.2c0.9-0.6-0.5-3.9,0.2-4.7c0.8-0.8,4.1,0.7,4.7-0.2
		c0.6-0.9-1.7-3.6-1.2-4.5c0.5-0.9,4.1-0.6,4.4-1.6s-2.7-2.8-2.6-3.9C419,173.9,422.5,173.1,422.5,172z M400.4,188.9
		c-9.3,0-16.9-7.6-16.9-16.9c0-9.3,7.6-16.9,16.9-16.9s16.9,7.6,16.9,16.9C417.3,181.4,409.8,188.9,400.4,188.9z"/>
	
		<linearGradient id="SVGID_4_" gradientUnits="userSpaceOnUse" x1="272.8" y1="598.55" x2="355.2" y2="598.55" gradientTransform="matrix(1 0 0 1 0 -284)">
		<stop  offset="0" style="stop-color:#FFEB2E"/>
		<stop  offset="1" style="stop-color:#D9C320"/>
	</linearGradient>
	<path class="st5" d="M355.2,314.5c0,22.7-18.4,41.2-41.2,41.2c-22.8,0-41.2-18.4-41.2-41.2c0-22.8,18.4-41.2,41.2-41.2
		C336.8,273.4,355.2,291.8,355.2,314.5z"/>
	
		<linearGradient id="SVGID_5_" gradientUnits="userSpaceOnUse" x1="234.1056" y1="598.65" x2="393.9277" y2="598.65" gradientTransform="matrix(1 0 0 1 0 -284)">
		<stop  offset="0" style="stop-color:#FFEB2E"/>
		<stop  offset="1" style="stop-color:#D9C320"/>
	</linearGradient>
	<path class="st6" d="M392.7,328.5L361.6,317l0,0l32.3-2.3l-32.3-2.3l0,0l31.1-11.5l-33.1-0.2l0,0l29.5-13.2l-31.2,8.8l0,0
		l25.3-21.4L352,286l0,0l23.3-22.6l-26.3,19l0,0l16.4-28.8l-25.5,21.2l0,0l14.1-29.2l-18.2,26.8l0,0l5.6-32.7l-16.7,28.6l0,0
		l3.3-32.2l-7.9,31.4l0,0l-5.9-32.6l-5.9,32.6l0,0l-7.9-31.4l3.3,32.2l0,0L287,239.8l5.6,32.7l0,0l-18.2-26.8l14.1,29.2l0,0
		L263,253.6l16.4,28.8l0,0l-26.3-19l23.2,22.6l0,0l-31.2-11.2l25.3,21.4l0,0l-31.2-8.8l29.5,13.2l0,0l-33.1,0.2l31.1,11.5l0,0
		l-32.3,2.3l32.3,2.3l0,0l-31.4,11.5l33.1,0.2l0,0l-29.5,13.2l31.2-8.8l0,0l-25.3,21.4l31.2-11.2l0,0l-23.3,22.6l26.3-19l0,0
		l-16.4,28.8l25.5-21.2l0,0L274,383.6l18.2-26.8l0,0l-5.6,32.7l16.7-28.6l0,0l-3.3,32.2l7.9-31.4l0,0l5.9,32.6l5.9-32.6l0,0
		l7.9,31.4l-3.3-32.2l0,0l16.7,28.6l-5.6-32.7l0,0l18.2,26.8l-14.1-29.2l0,0l25.5,21.2l-16.4-28.8l0,0l26.3,19L352,343.5l0,0
		l31.2,11.2l-25.3-21.4l0,0l31.2,8.8l-29.6-13.3l0,0L392.7,328.5L392.7,328.5z M359.2,314.5c0,24.9-20.3,45.2-45.2,45.2
		s-45.2-20.3-45.2-45.2c0-24.9,20.3-45.2,45.2-45.2S359.2,289.6,359.2,314.5z"/>
</g>
</svg>
