<?xml version="1.0" encoding="utf-8"?>
<!-- Generator: Adobe Illustrator 25.0.0, SVG Export Plug-In . SVG Version: 6.00 Build 0)  -->
<svg version="1.1" id="OBJECTS" xmlns="http://www.w3.org/2000/svg" xmlns:xlink="http://www.w3.org/1999/xlink" x="0px" y="0px"
	 viewBox="0 0 630 630" style="enable-background:new 0 0 630 630;" xml:space="preserve">
<style type="text/css">
	.st0{fill:url(#SVGID_1_);}
	.st1{fill:url(#SVGID_2_);}
	.st2{fill:#F2F2F2;}
	.st3{fill:#FFFFFF;}
	.st4{fill:url(#SVGID_3_);}
	.st5{fill:url(#SVGID_4_);}
	.st6{fill:#AF950A;}
	.st7{fill:url(#SVGID_5_);}
	.st8{fill:#1E529D;}
	.st9{fill:url(#SVGID_6_);}
</style>
<linearGradient id="SVGID_1_" gradientUnits="userSpaceOnUse" x1="315" y1="627.5" x2="315" y2="2.5">
	<stop  offset="0" style="stop-color:#1C4B90"/>
	<stop  offset="1" style="stop-color:#00A3E0"/>
</linearGradient>
<circle class="st0" cx="315" cy="315" r="312.5"/>
<g>
	
		<linearGradient id="SVGID_2_" gradientUnits="userSpaceOnUse" x1="170.8" y1="599" x2="461.2" y2="599" gradientTransform="matrix(1 0 0 1 0 -284)">
		<stop  offset="0" style="stop-color:#1E529D"/>
		<stop  offset="0.42" style="stop-color:#143569"/>
		<stop  offset="1" style="stop-color:#091025"/>
	</linearGradient>
	<path class="st1" d="M437.8,167.2c-44.1,0-86.9-14.7-121.8-41.7l0,0l0,0c-34.9,27-77.7,41.7-121.8,41.7h-23.4V341
		c0,40.1,19.8,77.5,52.8,100.2l92.4,63.3l92.4-63.3c33-22.7,52.8-60.1,52.8-100.2V167.2H437.8L437.8,167.2z"/>
	<path class="st2" d="M437.8,183.5c-43.3,0-86.1-13.3-121.8-37.8c-35.7,24.4-78.5,37.8-121.8,37.8h-7.1l128.8,301.3l128.9-301.3
		H437.8L437.8,183.5z"/>
	<path class="st3" d="M444.8,183.5h-7.1c-43.3,0-86.1-13.3-121.8-37.8v339.1C316,484.7,444.8,183.5,444.8,183.5z"/>
	
		<linearGradient id="SVGID_3_" gradientUnits="userSpaceOnUse" x1="395.3" y1="751.4" x2="470.5" y2="751.4" gradientTransform="matrix(1 0 0 1 0 -284)">
		<stop  offset="0" style="stop-color:#FFEB2E"/>
		<stop  offset="1" style="stop-color:#D9C320"/>
	</linearGradient>
	<polygon class="st4" points="395.3,482.7 466,495.9 456.5,470.9 470.5,448.1 406.5,439 	"/>
	
		<linearGradient id="SVGID_4_" gradientUnits="userSpaceOnUse" x1="159.5" y1="751.4" x2="234.7" y2="751.4" gradientTransform="matrix(1 0 0 1 0 -284)">
		<stop  offset="0" style="stop-color:#FFEB2E"/>
		<stop  offset="1" style="stop-color:#D9C320"/>
	</linearGradient>
	<polygon class="st5" points="234.7,482.7 164,495.9 173.5,470.9 159.5,448.1 223.5,439 	"/>
	<polygon class="st6" points="423.9,466.2 395.3,482.7 406.5,439 434.2,421 	"/>
	<polygon class="st6" points="206.1,466.2 234.7,482.7 223.5,439 195.7,421 	"/>
	
		<linearGradient id="SVGID_5_" gradientUnits="userSpaceOnUse" x1="190.2" y1="721.169" x2="439.6" y2="721.169" gradientTransform="matrix(1 0 0 1 0 -284)">
		<stop  offset="0" style="stop-color:#FFEB2E"/>
		<stop  offset="1" style="stop-color:#D9C320"/>
	</linearGradient>
	<path class="st7" d="M315,456.5c72.4,0,108.9,9.8,108.9,9.8l15.7-45.4c-67.2-14.3-124.7-12.7-124.7-12.7s-57.5-1.7-124.7,12.7
		l15.7,45.4C206,466.2,242.6,456.5,315,456.5L315,456.5z"/>
	<path class="st8" d="M228,441.5l-4.6,0.1l-0.8,5.2l-3,0.1l-0.1-2.3l4-20.2l3.5-0.1l5.1,19.9l0.1,2.3l-3,0.1L228,441.5L228,441.5z
		 M223.9,438.6l3.4-0.1l-1.8-8.3h-0.3L223.9,438.6z"/>
	<path class="st8" d="M241.3,424l3-0.1l0.5,22.3l-2.9,0.1l-5.1-13.2h-0.3l0.3,13.3l-3,0.1l-0.5-22.3l2.9-0.1l5.1,13.2h0.3L241.3,424
		L241.3,424z"/>
	<path class="st8" d="M253.6,426.9l0.3,19.3l-3.4,0.1l-0.3-19.3l-4,0.1l-0.1-3.1l11.4-0.2l0.1,3.1H253.6L253.6,426.9z"/>
	<path class="st8" d="M267.4,436.4l-4.3,0.1l0.1,9.6l-3.3,0.1l-0.3-22.3l3.3-0.1l0.1,9.7l4.3-0.1l-0.1-9.7l3.4-0.1l0.3,22.3
		l-3.4,0.1L267.4,436.4z"/>
	<path class="st8" d="M273.3,423.6l9.5-0.1v3.1l-6.2,0.1l0.1,6.4l5.9-0.1v3.1l-5.8,0.1l0.1,6.9l6.3-0.1v3.1l-9.6,0.1L273.3,423.6
		L273.3,423.6z"/>
	<path class="st8" d="M285.2,423.5h3.4l0.1,19.3h5.9v3l-9.3,0.1L285.2,423.5L285.2,423.5z"/>
	<path class="st8" d="M296.1,445.7v-3.1h0.9l-0.1-16.2H296v-3h5.2v3h-0.9l0.1,16.3h0.9v3L296.1,445.7L296.1,445.7z"/>
	<path class="st8" d="M314.6,442c0,2.4-1.1,3.2-2.4,3.7H306c-1.4-0.5-2.4-1.3-2.4-3.7v-14.9c0-2.4,1-3.2,2.4-3.7h6.2
		c1.4,0.5,2.4,1.3,2.4,3.7V442z M311.2,426.8l-0.7-0.7h-3l-0.7,0.7v15.4l0.7,0.7h3l0.7-0.7V426.8L311.2,426.8z"/>
	<path class="st8" d="M328.2,437.1v4.8c0,2.4-1.1,3.2-2.4,3.7h-6.3c-1.4-0.5-2.4-1.4-2.4-3.7v-3.7h3.4v4l0.7,0.7h3l0.7-0.7v-5.2
		l-0.6-0.7l-4.9-1.5c-1.4-0.6-2.1-1.5-2.1-3.6V427c0-2.4,1.1-3.2,2.4-3.7h6.2c1.4,0.5,2.4,1.4,2.4,3.7v3.6h-3.4v-3.9l-0.7-0.7h-3
		l-0.7,0.7v4.6l0.7,0.7l4.8,1.4C327.4,434,328.2,435,328.2,437.1L328.2,437.1z"/>
	<path class="st8" d="M335.3,423.4h3.4l-0.1,19.3h5.9v3.1l-9.3-0.1C335.2,445.7,335.3,423.4,335.3,423.4z"/>
	<path class="st8" d="M346.4,423.5l9.5,0.1v3.1l-6.2-0.1l-0.1,6.4l5.9,0.1v3.1l-5.9-0.1l-0.1,6.9l6.3,0.1v3.1l-9.7-0.1L346.4,423.5
		L346.4,423.5z"/>
	<path class="st8" d="M365.8,440.8l-4.6-0.1l-1,5.2h-3v-2.3l4.8-20l3.5,0.1l4.3,20.1v2.3h-3L365.8,440.8L365.8,440.8z M361.9,437.8
		l3.4,0.1l-1.5-8.4h-0.3L361.9,437.8L361.9,437.8z"/>
	<path class="st8" d="M373.5,446.1c-1.3-0.5-2.4-1.4-2.4-3.7l0.3-14.9c0.1-2.4,1.1-3.2,2.5-3.7l6.2,0.1c1.3,0.5,2.4,1.4,2.4,3.7
		l-0.1,4l-3.4-0.1l0.1-4.2l-0.7-0.7l-3-0.1l-0.7,0.7l-0.3,15.4l0.7,0.7l3,0.1l0.7-0.7l0.1-5.5h-2.1l0.1-3.1l5.5,0.1l-0.1,8.2
		c-0.1,2.4-1.1,3.2-2.5,3.7H373.5L373.5,446.1z"/>
	<path class="st8" d="M388.2,442.9l0.7,0.7l2.8,0.1l0.7-0.7l0.4-18.9l3.3,0.1l-0.4,18.6c-0.1,2.4-1.1,3.2-2.5,3.7l-6.1-0.1
		c-1.3-0.5-2.4-1.4-2.3-3.8l0.4-18.6l3.4,0.1L388.2,442.9z"/>
	<path class="st8" d="M398.9,424.2l9.5,0.3l-0.1,3.1l-6.2-0.2l-0.2,6.4l5.9,0.2l-0.1,3.1l-5.9-0.2l-0.2,6.9l6.3,0.2l-0.1,3.1
		l-9.7-0.3L398.9,424.2L398.9,424.2z"/>
	
		<linearGradient id="SVGID_6_" gradientUnits="userSpaceOnUse" x1="308.0045" y1="510.2819" x2="320.3638" y2="562.8475" gradientTransform="matrix(1 0 0 1 0 -284)">
		<stop  offset="0" style="stop-color:#FFEB2E"/>
		<stop  offset="1" style="stop-color:#D9C320"/>
	</linearGradient>
	<path class="st9" d="M353.2,251c0,21.8-17.7,39.5-39.5,39.5c-21.8,0-39.5-17.7-39.5-39.5s17.7-39.5,39.5-39.5
		C335.5,211.5,353.2,229.1,353.2,251z M385.2,262.8c-0.1,0.6-0.5,1.1-1.1,1.4l-16.9,6.3l8.6,14.8c0.3,0.5,0.3,1.2,0,1.8
		c-0.3,0.5-0.9,0.9-1.5,0.9h-15.8l3,16.1c0.1,0.6-0.1,1.3-0.6,1.7c-0.5,0.4-1.1,0.5-1.7,0.3l-17-6l-3.1,17.4
		c-0.1,0.6-0.5,1.1-1.1,1.4c-0.6,0.2-1.3,0.1-1.8-0.3L324,308.4l-7.8,13.8c-0.3,0.5-0.9,0.9-1.5,0.9s-1.2-0.3-1.6-0.9l-9-15.2
		l-13.7,11.5c-0.5,0.4-1.2,0.5-1.8,0.3c-0.6-0.2-1-0.7-1.1-1.4l-2.8-16.1l-14.7,5.5c-0.6,0.2-1.3,0.1-1.8-0.3
		c-0.5-0.4-0.7-1-0.6-1.7l2.8-16.9h-18c-0.6,0-1.2-0.3-1.5-0.9c-0.3-0.5-0.3-1.2,0-1.8l8.4-14.6l-15-5.3c-0.6-0.2-1-0.7-1.2-1.3
		c-0.1-0.6,0.1-1.3,0.6-1.7l12.7-10.9L242.9,240c-0.5-0.4-0.7-1-0.6-1.7c0.1-0.6,0.5-1.1,1.1-1.4l16.2-5.9l-8.3-14.1
		c-0.3-0.5-0.3-1.2,0-1.8c0.3-0.5,0.9-0.9,1.5-0.9l16.5-0.2l-3-16.9c-0.1-0.6,0.1-1.3,0.6-1.7s1.2-0.5,1.8-0.3l16.2,5.9l2.8-16.7
		c0.1-0.6,0.5-1.1,1.1-1.4c0.6-0.2,1.3-0.1,1.8,0.3l12.9,10.6l8.4-14.5c0.3-0.5,0.9-0.9,1.5-0.9c0.6,0,1.2,0.3,1.5,0.9l8.4,14.6
		l13.1-11.2c0.5-0.4,1.1-0.5,1.8-0.3c0.6,0.2,1,0.7,1.2,1.3l3.1,16.9l15.5-5.7c0.6-0.2,1.3-0.1,1.8,0.3s0.7,1,0.6,1.7l-2.8,16.1
		l17.2-0.2c0.6,0,1.2,0.3,1.6,0.9c0.3,0.5,0.3,1.2,0,1.8l-8.7,15.4l15.7,5.7c0.6,0.2,1,0.7,1.1,1.4c0.1,0.6-0.1,1.3-0.6,1.7
		l-12.4,10.7l13,10.7C385.1,261.5,385.3,262.1,385.2,262.8L385.2,262.8z M361.5,251c0-26.4-21.5-47.8-47.8-47.8
		c-26.3,0-47.8,21.5-47.8,47.8s21.5,47.8,47.8,47.8C340,298.8,361.5,277.2,361.5,251z"/>
</g>
</svg>
