<?xml version="1.0" encoding="utf-8"?>
<!-- Generator: Adobe Illustrator 25.0.0, SVG Export Plug-In . SVG Version: 6.00 Build 0)  -->
<svg version="1.1" id="OBJECTS" xmlns="http://www.w3.org/2000/svg" xmlns:xlink="http://www.w3.org/1999/xlink" x="0px" y="0px"
	 viewBox="0 0 630 630" style="enable-background:new 0 0 630 630;" xml:space="preserve">
<style type="text/css">
	.st0{fill:url(#SVGID_1_);}
	.st1{fill:url(#SVGID_2_);}
	.st2{fill:url(#SVGID_3_);}
	.st3{fill:#AF950A;}
	.st4{fill:url(#SVGID_4_);}
	.st5{fill:#00A3E0;}
	.st6{fill:url(#SVGID_5_);}
	.st7{fill:#1E529D;}
	.st8{fill:url(#SVGID_6_);}
	.st9{fill:url(#SVGID_7_);}
</style>
<linearGradient id="SVGID_1_" gradientUnits="userSpaceOnUse" x1="315" y1="627.5" x2="315" y2="2.5">
	<stop  offset="0" style="stop-color:#1C4B90"/>
	<stop  offset="1" style="stop-color:#00A3E0"/>
</linearGradient>
<circle class="st0" cx="315" cy="315" r="312.5"/>
<g>
	
		<linearGradient id="SVGID_2_" gradientUnits="userSpaceOnUse" x1="426.5" y1="673.9" x2="504.5" y2="673.9" gradientTransform="matrix(1 0 0 1 0 -284)">
		<stop  offset="0" style="stop-color:#FFEB2E"/>
		<stop  offset="1" style="stop-color:#D9C320"/>
	</linearGradient>
	<polygon class="st1" points="426.5,414 504.5,424.6 487.4,394 504.5,366.3 426.5,355.2 	"/>
	
		<linearGradient id="SVGID_3_" gradientUnits="userSpaceOnUse" x1="125.5" y1="673.9" x2="203.5" y2="673.9" gradientTransform="matrix(1 0 0 1 0 -284)">
		<stop  offset="0" style="stop-color:#FFEB2E"/>
		<stop  offset="1" style="stop-color:#D9C320"/>
	</linearGradient>
	<polygon class="st2" points="203.5,414 125.5,424.6 142.6,394 125.5,366.3 203.5,355.2 	"/>
	<polygon class="st3" points="466.9,388.5 426.5,414 426.5,355.2 460.3,333.3 	"/>
	<polygon class="st3" points="163.1,388.5 203.5,414 203.5,355.2 169.7,333.3 	"/>
	
		<linearGradient id="SVGID_4_" gradientUnits="userSpaceOnUse" x1="183.1" y1="599" x2="446.9" y2="599" gradientTransform="matrix(1 0 0 1 0 -284)">
		<stop  offset="0" style="stop-color:#1E529D"/>
		<stop  offset="0.42" style="stop-color:#143569"/>
		<stop  offset="1" style="stop-color:#091025"/>
	</linearGradient>
	<path class="st4" d="M183.1,144.5v209.1c0,72.9,59.1,131.9,131.9,131.9l0,0c72.9,0,131.9-59.1,131.9-131.9V144.5H183.1z"/>
	<path class="st5" d="M198.6,331.6v22c0,37.4,17.8,70.7,45.3,92l187.5-187.5V160h-61.2L198.6,331.6z"/>
	
		<linearGradient id="SVGID_5_" gradientUnits="userSpaceOnUse" x1="163.1" y1="640.55" x2="466.9" y2="640.55" gradientTransform="matrix(1 0 0 1 0 -284)">
		<stop  offset="0" style="stop-color:#FFEB2E"/>
		<stop  offset="1" style="stop-color:#D9C320"/>
	</linearGradient>
	<rect x="163.1" y="324.5" class="st6" width="303.8" height="64.1"/>
	<path class="st7" d="M208.2,363.1l-5.8,0.3l-0.9,6.7l-3.9,0.2l-0.1-2.9l4.6-26l4.5-0.2l7,25.5l0.1,2.9l-3.9,0.2L208.2,363.1
		L208.2,363.1z M203,359.5l4.4-0.2l-2.5-10.6h-0.4L203,359.5z"/>
	<path class="st7" d="M225.1,340.4l3.9-0.1l0.9,28.6l-3.7,0.1l-6.7-16.8h-0.4l0.6,17l-3.9,0.1l-0.9-28.6l3.7-0.1l6.7,16.8h0.4
		L225.1,340.4z"/>
	<path class="st7" d="M241.1,343.9l0.6,24.8l-4.3,0.1l-0.6-24.8l-5.1,0.1l-0.1-3.9l14.6-0.4l0.1,3.9L241.1,343.9L241.1,343.9z"/>
	<path class="st7" d="M258.7,356l-5.6,0.1l0.2,12.3l-4.3,0.1l-0.5-28.6l4.3-0.1l0.2,12.5l5.6-0.1l-0.2-12.5l4.3-0.1l0.5,28.6
		l-4.3,0.1L258.7,356z"/>
	<path class="st7" d="M266.3,339.5l12.2-0.1v3.9l-7.9,0.1l0.1,8.2l7.5-0.1v3.9l-7.5,0.1l0.1,8.8l8.1-0.1v3.9l-12.4,0.1L266.3,339.5
		L266.3,339.5z"/>
	<path class="st7" d="M281.7,339.4h4.3l0.2,24.8l7.6-0.1v3.9l-11.9,0.1L281.7,339.4L281.7,339.4z"/>
	<path class="st7" d="M295.6,367.9V364h1.2l-0.1-20.9h-1.2v-3.9h6.7v3.9H301l0.1,20.9h1.2v3.9H295.6z"/>
	<path class="st7" d="M319.5,363.1c0,3-1.3,4.2-3.1,4.8h-8c-1.8-0.6-3.1-1.7-3.1-4.8V344c0-3,1.3-4.2,3.1-4.8h8
		c1.7,0.6,3.1,1.7,3.1,4.8V363.1L319.5,363.1z M315.1,343.6l-0.9-0.9h-3.8l-0.9,0.9v19.8l0.9,0.9h3.8l0.9-0.9V343.6z"/>
	<path class="st7" d="M336.8,356.9v6.2c0,3-1.4,4.1-3.1,4.8h-8c-1.7-0.7-3.1-1.8-3.1-4.8v-4.7h4.3v5.1l0.9,0.9h3.8l0.9-0.9v-6.7
		l-0.8-0.9l-6.3-1.9c-1.8-0.8-2.7-2-2.7-4.6v-5.3c0-3,1.4-4.1,3.1-4.8h8c1.7,0.7,3.1,1.8,3.1,4.8v4.6h-4.4v-5l-0.9-0.9h-3.8
		l-0.9,0.9v5.8l0.9,1l6.2,1.8C335.9,352.9,336.8,354.2,336.8,356.9L336.8,356.9z"/>
	<path class="st7" d="M346.1,339.3h4.3l-0.2,24.8h7.6v3.9l-11.9-0.1C345.8,367.9,346.1,339.3,346.1,339.3z"/>
	<path class="st7" d="M360.3,339.4l12.2,0.1v3.9l-7.9-0.1l-0.1,8.2l7.5,0.1v3.9l-7.5-0.1l-0.1,8.8l8.1,0.1v3.9l-12.4-0.1
		L360.3,339.4L360.3,339.4z"/>
	<path class="st7" d="M385.1,361.7l-5.8-0.1l-1.3,6.6l-3.9-0.1v-2.9l6.2-25.7l4.5,0.1l5.4,25.9v2.9l-3.9-0.1L385.1,361.7
		L385.1,361.7z M380,357.8l4.4,0.1l-1.8-10.8h-0.3L380,357.8L380,357.8z"/>
	<path class="st7" d="M395,368.6c-1.7-0.7-3.1-1.8-3-4.9l0.4-19.1c0.1-3,1.4-4.1,3.2-4.7l8,0.2c1.7,0.7,3.1,1.8,3,4.9l-0.1,5.1
		l-4.3-0.1l0.1-5.4l-0.8-0.9l-3.8-0.1l-0.9,0.8l-0.5,19.8l0.8,0.9l3.8,0.1l0.9-0.8l0.2-7l-2.7-0.1l0.1-3.9l7,0.2l-0.2,10.6
		c-0.1,3-1.4,4.1-3.2,4.7L395,368.6z"/>
	<path class="st7" d="M413.8,364.7l0.8,0.9l3.7,0.1l0.9-0.8l0.8-24.2l4.3,0.1l-0.8,23.9c-0.1,3-1.5,4.1-3.3,4.7l-7.8-0.2
		c-1.7-0.7-3-1.8-3-4.9l0.8-23.9l4.3,0.1L413.8,364.7L413.8,364.7z"/>
	<path class="st7" d="M427.9,340.9l12.2,0.5l-0.2,3.9L432,345l-0.4,8.2l7.5,0.3l-0.2,3.9l-7.5-0.3l-0.4,8.8l8.1,0.4l-0.2,3.9
		l-12.4-0.5L427.9,340.9L427.9,340.9z"/>
	
		<linearGradient id="SVGID_6_" gradientUnits="userSpaceOnUse" x1="219.8" y1="516.9" x2="294.8" y2="516.9" gradientTransform="matrix(1 0 0 1 0 -284)">
		<stop  offset="0" style="stop-color:#FFEB2E"/>
		<stop  offset="1" style="stop-color:#D9C320"/>
	</linearGradient>
	<path class="st8" d="M294.8,232.9c0,20.7-16.8,37.5-37.5,37.5c-20.7,0-37.5-16.8-37.5-37.5s16.8-37.5,37.5-37.5
		C278,195.4,294.8,212.2,294.8,232.9z"/>
	
		<linearGradient id="SVGID_7_" gradientUnits="userSpaceOnUse" x1="184.7" y1="516.65" x2="330.1" y2="516.65" gradientTransform="matrix(1 0 0 1 0 -284)">
		<stop  offset="0" style="stop-color:#FFEB2E"/>
		<stop  offset="1" style="stop-color:#D9C320"/>
	</linearGradient>
	<path class="st9" d="M329,245.6l-28.3-10.5l0,0l29.4-2.1l-29.4-2.1l0,0l28.3-10.5l-30.2-0.1l0,0l26.9-12.1l-28.4,8.1l0,0l23-19.5
		L291.9,207l0,0l21.2-20.6l-23.9,17.3l0,0l15-26.2l-23.3,19l0,0l12.9-26.6l-16.5,24.4l0,0l5.1-29.8l-15.2,26.1l0,0l3-29.3l-7.2,28.6
		l0,0l-5.4-29.7l-5.4,29.7l0,0l-7.2-28.6l3,29.3l0,0l-15.2-26.1l5.1,29.8l0,0l-16.5-24.4l12.5,26.6l0,0l-23.2-19.3l15,26.2l0,0
		l-23.9-17.3l21.2,20.6l0,0l-28.5-10.2l23,19.5l0,0l-28.4-8.1l26.9,12l0,0l-30.2,0.1l28.3,10.5l0,0l-29.4,2.1l29.4,2.1l0,0
		l-28.3,10.5l30.2,0.1l0,0l-26.9,12.1l28.4-8.1l0,0l-23,19.5l28.4-10.2l0,0l-21.2,20.6l23.9-17.3l0,0l-15,26.2l23.2-19.3l0,0
		l-12.9,26.6l16.5-24.4l0,0l-5.1,29.8l15.2-26.1l0,0l-3,29.3l7.2-28.6l0,0l5.4,29.7l5.4-29.7l0,0l7.2,28.6l-3-29.3l0,0l15.2,26.1
		l-5.1-29.8l0,0l16.5,24.4l-12.9-26.6l0,0l23.2,19.3l-15-26.2l0,0l23.9,17.3l-21.2-20.6l0,0l28.4,10.2l-23-19.5l0,0l28.4,8.1
		l-26.9-12.1l0,0L329,245.6L329,245.6z M298.5,232.9c0,22.7-18.5,41.1-41.1,41.1s-41.1-18.5-41.1-41.1s18.5-41.1,41.1-41.1
		S298.5,210.2,298.5,232.9z"/>
</g>
</svg>
