<?xml version="1.0" encoding="utf-8"?>
<!-- Generator: Adobe Illustrator 25.0.0, SVG Export Plug-In . SVG Version: 6.00 Build 0)  -->
<svg version="1.1" id="OBJECTS" xmlns="http://www.w3.org/2000/svg" xmlns:xlink="http://www.w3.org/1999/xlink" x="0px" y="0px"
	 viewBox="0 0 630 630" style="enable-background:new 0 0 630 630;" xml:space="preserve">
<style type="text/css">
	.st0{fill:url(#SVGID_1_);}
	.st1{fill:url(#SVGID_2_);}
	.st2{fill:#00A3E0;}
	.st3{fill:#FFEB2E;}
	.st4{fill:#211435;}
	.st5{fill:#1E529D;}
	.st6{fill:url(#SVGID_3_);}
</style>
<linearGradient id="SVGID_1_" gradientUnits="userSpaceOnUse" x1="315" y1="627.5" x2="315" y2="2.5">
	<stop  offset="0" style="stop-color:#1C4B90"/>
	<stop  offset="1" style="stop-color:#00A3E0"/>
</linearGradient>
<circle class="st0" cx="315" cy="315" r="312.5"/>
<g>
	
		<linearGradient id="SVGID_2_" gradientUnits="userSpaceOnUse" x1="314.3" y1="472.4734" x2="314.3" y2="798.7298" gradientTransform="matrix(1 0 0 1 0 -318)">
		<stop  offset="0" style="stop-color:#1E529D"/>
		<stop  offset="0.42" style="stop-color:#143569"/>
		<stop  offset="1" style="stop-color:#091025"/>
	</linearGradient>
	<path class="st1" d="M314.4,127.8l-148.9,58.6l19,181.6c3,28.8,18.3,55,41.9,71.8l87.9,62.4l87.9-62.4
		c23.6-16.8,38.9-42.9,41.9-71.8l19-181.6L314.4,127.8L314.4,127.8z"/>
	<polygon class="st2" points="199.5,356.5 429.3,356.5 440.4,250.4 188.4,250.4 	"/>
	<polygon class="st3" points="314.4,159.2 321.8,174.3 338.4,176.7 326.4,188.4 329.2,205 314.4,197.2 299.5,205 302.4,188.4 
		290.3,176.7 306.9,174.3 	"/>
	<path class="st4" d="M413.9,445.3c-4-0.5-5.9,9-6.7,19.6c-0.2,2.6-0.4,5.2-0.4,7.9c0,1.3,0,2.7,0,4s0,2.5,0.1,3.7
		c0.3,4.8,1.1,9.1,3.1,11.3c2,2.2,6.1,3.2,11.4,3c1.3-0.1,2.7-0.2,4.2-0.4c1.4-0.2,2.8-0.5,4.3-0.9c2.9-0.7,6-1.6,8.9-2.8
		c11.5-4.6,21.1-12.2,19.4-16s-11.9-0.4-21.6,2.9c-5,1.6-9.6,3.5-13.3,4.6c-3.6,1.2-5.9,2-5.9,2s0.5-2.5,1.1-6.1
		c0.6-3.5,1-8.6,1-13.3C419.4,455.1,417.8,445.7,413.9,445.3L413.9,445.3z"/>
	<path class="st4" d="M435.3,416c-1.7,0.1-2.8,2.2-3.4,5.6s-0.6,7.9-0.4,12.6c0.6,9.4,2.4,19.7,6.6,22.5s14.7-0.1,23.5-5.2
		c4.5-2.5,8.4-5.5,11-8.2s4-5.2,3.1-6.7c-1.8-2.9-10.1,0.6-17.7,4.5c-3.8,2-7.7,3.9-10.5,5.5c-2.8,1.5-4.6,2.6-4.6,2.6
		s0-2.1-0.1-5.3c-0.1-3.2-0.2-7.3-0.8-11.5C440.9,423.9,438.7,415.9,435.3,416L435.3,416z"/>
	<path class="st4" d="M451.4,387.8c-1.5,0.2-2.2,2.2-2.5,5.2s-0.1,6.9,0.5,11c1.3,8.2,3.7,16.9,7.7,18.9c3.9,1.9,12.6-1.5,19.7-6.5
		c3.5-2.5,6.8-5.3,8.8-7.8s2.9-4.7,2-5.9c-1.9-2.4-8.4,1.3-14.9,5.1c-3.2,1.9-6.2,4-8.5,5.6s-3.8,2.6-3.8,2.6s-0.1-1.8-0.5-4.6
		c-0.3-2.7-0.9-6.4-1.7-9.9C457,394.3,454.2,387.4,451.4,387.8L451.4,387.8z"/>
	<path class="st4" d="M463.2,365.9c-2.4,0.5-2.3,6.8-0.8,13.6c1.5,6.7,4,13.8,7.4,15.2c3.3,1.4,10.4-2,15.9-6.5s10-9.9,8.3-11.8
		c-1.6-1.9-7,1.4-12.1,4.9c-2.5,1.8-4.9,3.7-6.7,5.1c-1.8,1.4-3,2.3-3,2.3s-0.2-1.5-0.6-3.7s-1.1-5.2-1.9-8.1
		C467.9,371,465.6,365.5,463.2,365.9L463.2,365.9z"/>
	<path class="st4" d="M472.6,344.4c-2,0.5-1.5,5.9,0,11.4c1.4,5.6,4.1,11.4,7,12.4s8.4-2.2,13-6.2c4.5-4,7.7-8.7,6.3-10.2
		c-1.4-1.5-5.8,1.5-9.8,4.7c-2,1.6-3.9,3.3-5.4,4.5c-1.4,1.3-2.4,2.1-2.4,2.1s-0.3-1.2-0.7-3.1c-0.5-1.8-1.1-4.3-1.9-6.7
		C476.8,348.5,474.6,343.9,472.6,344.4L472.6,344.4z"/>
	<path class="st4" d="M479.2,324.6c-1.8,0.5-1.2,5.3,0.4,10.2c1.7,4.9,4.2,10,6.8,10.7c2.6,0.7,7.6-2.3,11.3-6.1
		c3.8-3.8,6.6-8.1,5.2-9.4c-1.3-1.3-5.2,1.5-8.6,4.6c-3.5,3-6.6,6.3-6.6,6.3s-1.2-4.4-2.9-8.6S480.9,324.1,479.2,324.6L479.2,324.6z
		"/>
	<path class="st4" d="M485.6,307.7c-1.3,0.5-0.8,4.1,0.6,7.8c1.4,3.7,3.6,7.5,5.7,8c2,0.5,5.6-2.1,8.4-5.1s4.8-6.4,3.7-7.3
		c-1.1-0.9-3.9,1.3-6.5,3.8s-4.9,5.1-4.9,5.1s-1.1-3.3-2.5-6.5C488.7,310.3,486.9,307.3,485.6,307.7L485.6,307.7z"/>
	<path class="st4" d="M496,301.6c0,0-0.9-2.5-2.1-4.8c-1.1-2.3-2.6-4.5-3.6-4.2c-2,0.7,2.1,11.1,5.2,11.7s10.3-8.3,8.7-9.7
		c-0.8-0.7-2.9,1.1-4.7,3C497.6,299.5,496,301.6,496,301.6z"/>
	<path class="st4" d="M216.1,445.3c4-0.5,5.9,9,6.7,19.6c0.2,2.6,0.4,5.2,0.4,7.9c0,1.3,0,2.7,0,4s0,2.5-0.1,3.7
		c-0.3,4.8-1.1,9.1-3.1,11.3s-6.1,3.2-11.4,3c-1.3-0.1-2.7-0.2-4.2-0.4c-1.4-0.2-2.8-0.5-4.3-0.9c-2.9-0.7-6-1.6-8.9-2.8
		c-11.5-4.6-21.1-12.2-19.4-16s11.9-0.4,21.6,2.9c5,1.6,9.6,3.5,13.3,4.6c3.6,1.2,5.9,2,5.9,2s-0.5-2.5-1.1-6.1
		c-0.6-3.5-1-8.6-1-13.3C210.6,455.1,212.2,445.7,216.1,445.3L216.1,445.3z"/>
	<path class="st4" d="M194.7,416c1.7,0.1,2.8,2.2,3.4,5.6c0.6,3.3,0.6,7.9,0.4,12.6c-0.6,9.4-2.4,19.7-6.6,22.5s-14.7-0.1-23.5-5.2
		c-4.5-2.5-8.4-5.5-11-8.2c-2.6-2.7-4-5.2-3.1-6.7c1.8-2.9,10.1,0.6,17.7,4.5c3.8,2,7.7,3.9,10.5,5.5s4.6,2.6,4.6,2.6s0-2.1,0.1-5.3
		c0.1-3.2,0.2-7.3,0.8-11.5C189.1,423.9,191.3,415.9,194.7,416L194.7,416z"/>
	<path class="st4" d="M178.6,387.8c1.5,0.2,2.2,2.2,2.5,5.2s0.1,6.9-0.5,11c-1.3,8.2-3.7,16.9-7.7,18.9c-3.9,1.9-12.6-1.5-19.7-6.5
		c-3.5-2.5-6.8-5.3-8.8-7.8s-2.9-4.7-2-5.9c1.9-2.4,8.4,1.3,14.9,5.1c3.2,1.9,6.2,4,8.5,5.6s3.8,2.6,3.8,2.6s0.1-1.8,0.5-4.6
		c0.4-2.7,0.9-6.4,1.7-9.9C173,394.3,175.8,387.4,178.6,387.8L178.6,387.8z"/>
	<path class="st4" d="M166.8,365.9c2.4,0.5,2.3,6.8,0.8,13.6c-1.5,6.7-4,13.8-7.4,15.2c-3.3,1.4-10.4-2-15.9-6.5s-10-9.9-8.3-11.8
		c1.6-1.9,7,1.4,12.1,4.9c2.5,1.8,4.9,3.7,6.7,5.1c1.8,1.4,3,2.3,3,2.3s0.2-1.5,0.6-3.7c0.5-2.2,1.1-5.2,1.9-8.1
		C162.1,371,164.4,365.5,166.8,365.9L166.8,365.9z"/>
	<path class="st4" d="M157.4,344.4c2,0.5,1.5,5.9,0,11.4c-1.4,5.6-4.1,11.4-7,12.4c-2.9,1-8.4-2.2-13-6.2c-4.5-4-7.7-8.7-6.3-10.2
		c1.4-1.5,5.8,1.5,9.8,4.7c2,1.6,3.9,3.3,5.4,4.5c1.4,1.3,2.4,2.1,2.4,2.1s0.3-1.2,0.7-3.1c0.5-1.8,1.1-4.3,1.9-6.7
		C153.1,348.5,155.4,343.9,157.4,344.4L157.4,344.4z"/>
	<path class="st4" d="M150.8,324.6c1.8,0.5,1.2,5.3-0.4,10.2c-1.7,4.9-4.2,10-6.8,10.7c-2.6,0.7-7.6-2.3-11.3-6.1
		c-3.8-3.8-6.6-8.1-5.2-9.4c1.3-1.3,5.2,1.5,8.6,4.6c3.5,3,6.6,6.3,6.6,6.3s1.2-4.4,2.9-8.6S149.1,324.1,150.8,324.6L150.8,324.6z"
		/>
	<path class="st4" d="M144.4,307.7c1.3,0.5,0.8,4.1-0.6,7.8c-1.4,3.7-3.6,7.5-5.7,8c-2.1,0.5-5.6-2.1-8.4-5.1
		c-2.8-3-4.8-6.4-3.7-7.3s3.9,1.3,6.5,3.8s4.9,5.1,4.9,5.1s1.1-3.3,2.5-6.5C141.3,310.3,143.1,307.3,144.4,307.7L144.4,307.7z"/>
	<path class="st4" d="M134,301.6c0,0,0.9-2.5,2.1-4.8c1.1-2.3,2.6-4.5,3.6-4.2c2,0.7-2.1,11.1-5.2,11.7c-3.1,0.6-10.3-8.3-8.7-9.7
		c0.8-0.7,2.9,1.1,4.7,3C132.4,299.5,134,301.6,134,301.6z"/>
	<polygon class="st5" points="314.4,356.5 429.3,356.5 440.4,250.4 314.4,250.4 	"/>
	
		<linearGradient id="SVGID_3_" gradientUnits="userSpaceOnUse" x1="305.2639" y1="630.1285" x2="322.1811" y2="702.0132" gradientTransform="matrix(1 0 0 1 0 -318)">
		<stop  offset="0" style="stop-color:#FFEB2E"/>
		<stop  offset="1" style="stop-color:#D9C320"/>
	</linearGradient>
	<path class="st6" d="M367.5,345.7c0,29.9-24.2,54.1-54.1,54.1c-29.9,0-54.1-24.2-54.1-54.1s24.2-54.1,54.1-54.1
		C343.3,291.6,367.5,315.9,367.5,345.7z M411.2,361.9c-0.1,0.9-0.7,1.6-1.5,1.9l-23.1,8.6l11.7,20.3c0.4,0.7,0.4,1.7,0,2.4
		s-1.2,1.2-2.1,1.2h-21.5l4.1,22c0.2,0.9-0.2,1.7-0.8,2.3c-0.7,0.6-1.6,0.7-2.4,0.5l-23.2-8.2l-4.2,23.8c-0.2,0.9-0.7,1.6-1.6,1.9
		c-0.9,0.3-1.7,0.1-2.4-0.4l-16.7-14l-10.7,18.9c-0.4,0.7-1.2,1.2-2.1,1.2c-0.9,0-1.7-0.5-2.1-1.2l-12.3-20.8l-18.8,15.8
		c-0.7,0.6-1.6,0.7-2.4,0.4c-0.8-0.3-1.4-1-1.5-1.9l-3.9-22l-20.1,7.5c-0.8,0.3-1.7,0.2-2.4-0.4s-1-1.4-0.9-2.3l3.9-23.1h-24.7
		c-0.9,0-1.7-0.5-2.1-1.2c-0.4-0.7-0.4-1.7,0-2.4l11.5-20l-20.5-7.3c-0.8-0.3-1.4-1-1.6-1.8c-0.2-0.9,0.2-1.7,0.8-2.3l17.4-14.8
		l-18.5-15.6c-0.7-0.6-1-1.4-0.8-2.3s0.7-1.6,1.5-1.9l22.1-8.1l-11.4-19.3c-0.4-0.7-0.5-1.7,0-2.4c0.4-0.7,1.2-1.2,2.1-1.2l22.6-0.2
		l-4.1-23.1c-0.2-0.9,0.2-1.7,0.8-2.3c0.7-0.6,1.6-0.7,2.4-0.4l22.1,8.1l3.8-22.8c0.1-0.9,0.7-1.6,1.5-1.9c0.8-0.3,1.7-0.2,2.4,0.4
		l17.6,14.5l11.4-19.8c0.4-0.7,1.2-1.2,2.1-1.2c0.9,0,1.7,0.5,2.1,1.2l11.6,20l17.9-15.3c0.7-0.6,1.6-0.7,2.4-0.4s1.4,1,1.6,1.8
		l4.3,23.1l21.2-7.7c0.8-0.3,1.7-0.1,2.4,0.4c0.7,0.6,1,1.4,0.8,2.3l-3.9,22l23.5-0.2c0.9,0,1.7,0.5,2.1,1.2c0.5,0.7,0.5,1.7,0,2.4
		l-11.9,21.1l21.5,7.8c0.8,0.3,1.4,1,1.5,1.9c0.2,0.9-0.2,1.7-0.8,2.3l-16.7,14l17.8,14.7C411,360.1,411.3,361,411.2,361.9
		L411.2,361.9z M378.9,345.7c0-36.1-29.4-65.4-65.4-65.4s-65.4,29.4-65.4,65.4s29.4,65.4,65.4,65.4S378.9,381.8,378.9,345.7z"/>
</g>
</svg>
