<?xml version="1.0" encoding="utf-8"?>
<!-- Generator: Adobe Illustrator 25.0.0, SVG Export Plug-In . SVG Version: 6.00 Build 0)  -->
<svg version="1.1" id="OBJECTS" xmlns="http://www.w3.org/2000/svg" xmlns:xlink="http://www.w3.org/1999/xlink" x="0px" y="0px"
	 viewBox="0 0 630 630" style="enable-background:new 0 0 630 630;" xml:space="preserve">
<style type="text/css">
	.st0{fill:url(#SVGID_1_);}
	.st1{fill:url(#SVGID_2_);}
	.st2{fill:url(#SVGID_3_);}
	.st3{fill:#AF950A;}
	.st4{fill:url(#SVGID_4_);}
	.st5{fill:url(#SVGID_5_);}
	.st6{fill:url(#SVGID_6_);}
	.st7{fill:#1E529D;}
	.st8{fill:url(#SVGID_7_);}
</style>
<linearGradient id="SVGID_1_" gradientUnits="userSpaceOnUse" x1="315" y1="627.5" x2="315" y2="2.5">
	<stop  offset="0" style="stop-color:#1C4B90"/>
	<stop  offset="1" style="stop-color:#00A3E0"/>
</linearGradient>
<circle class="st0" cx="315" cy="315" r="312.5"/>
<g>
	
		<linearGradient id="SVGID_2_" gradientUnits="userSpaceOnUse" x1="110.2" y1="694.75" x2="194.4922" y2="694.75" gradientTransform="matrix(1 0 0 1 0 -318)">
		<stop  offset="0" style="stop-color:#FFEB2E"/>
		<stop  offset="1" style="stop-color:#D9C320"/>
	</linearGradient>
	<polygon class="st1" points="194.4,350.8 110.2,339.3 128.6,372.3 110.2,402.3 194.4,414.2 	"/>
	
		<linearGradient id="SVGID_3_" gradientUnits="userSpaceOnUse" x1="435.6" y1="694.75" x2="519.8922" y2="694.75" gradientTransform="matrix(1 0 0 1 0 -318)">
		<stop  offset="0" style="stop-color:#FFEB2E"/>
		<stop  offset="1" style="stop-color:#D9C320"/>
	</linearGradient>
	<polygon class="st2" points="435.6,350.8 519.8,339.3 501.4,372.3 519.8,402.3 435.6,414.2 	"/>
	<polygon class="st3" points="150.8,378.3 194.4,350.8 194.4,414.2 157.9,438 	"/>
	<polygon class="st3" points="479.2,378.3 435.6,350.8 435.6,414.2 472.1,438 	"/>
	
		<linearGradient id="SVGID_4_" gradientUnits="userSpaceOnUse" x1="154.1" y1="633" x2="475.9" y2="633" gradientTransform="matrix(1 0 0 1 0 -318)">
		<stop  offset="0" style="stop-color:#1E529D"/>
		<stop  offset="0.42" style="stop-color:#143569"/>
		<stop  offset="1" style="stop-color:#091025"/>
	</linearGradient>
	<path class="st4" d="M459,152.1c-46.1-17.7-94.6-26.6-144-26.6s-97.9,9-144,26.6l-16.9,6.4l21.2,202.8c3.2,30.3,19.2,57.7,44,75.3
		l95.6,67.9l95.6-67.9c24.8-17.6,40.8-45.1,44-75.3l21.4-202.8L459,152.1L459,152.1z"/>
	
		<linearGradient id="SVGID_5_" gradientUnits="userSpaceOnUse" x1="314.9" y1="630.85" x2="455.6" y2="630.85" gradientTransform="matrix(1 0 0 1 0 -318)">
		<stop  offset="0" style="stop-color:#1E529D"/>
		<stop  offset="1" style="stop-color:#00A3E0"/>
	</linearGradient>
	<path class="st5" d="M452.3,169.6c-44-16.8-90.2-25.4-137.4-25.4v337.3l84.8-60.2c20.4-14.5,33.6-37.1,36.2-62l19.7-188.5
		L452.3,169.6L452.3,169.6z"/>
	
		<linearGradient id="SVGID_6_" gradientUnits="userSpaceOnUse" x1="150.8" y1="734.5392" x2="479.2" y2="734.5392" gradientTransform="matrix(1 0 0 1 0 -318)">
		<stop  offset="0" style="stop-color:#FFEB2E"/>
		<stop  offset="1" style="stop-color:#D9C320"/>
	</linearGradient>
	<path class="st6" d="M315,391.2c-95.4,0-164.2-12.9-164.2-12.9V438c88.5,18.8,164.2,16.7,164.2,16.7s75.7,2.2,164.2-16.7v-59.7
		C479.2,378.3,410.4,391.2,315,391.2z"/>
	<path class="st7" d="M207.6,424.5l-5.6-0.8l-2.1,6.2l-3.7-0.5l0.4-2.8l9-24.1l4.3,0.6l2.2,25.6l-0.4,2.8L208,431L207.6,424.5
		L207.6,424.5z M203.2,420.1l4.2,0.6l-0.5-10.6h-0.3L203.2,420.1z"/>
	<path class="st7" d="M226.8,405.3l3.7,0.4l-3.2,27.7l-3.6-0.4l-4-17.2h-0.4l-1.9,16.5l-3.7-0.4l3.2-27.7l3.6,0.4l4,17.2h0.4
		L226.8,405.3z"/>
	<path class="st7" d="M241,410.5l-2.3,24l-4.2-0.4l2.3-24l-5-0.5l0.4-3.8l14.1,1.4l-0.4,3.8L241,410.5L241,410.5z"/>
	<path class="st7" d="M256.2,424l-5.4-0.4l-0.9,11.9l-4.2-0.3l2.2-27.8l4.2,0.3l-0.9,12.1l5.4,0.4l0.9-12.1l4.2,0.3l-2.2,27.8
		l-4.2-0.3L256.2,424z"/>
	<path class="st7" d="M264.2,408.6l11.9,0.7l-0.2,3.8l-7.7-0.4l-0.5,7.9l7.3,0.4l-0.2,3.8l-7.3-0.4L267,433l7.9,0.5l-0.2,3.8
		l-12.1-0.7L264.2,408.6L264.2,408.6z"/>
	<path class="st7" d="M278.5,409.4l4.2,0.2l-0.9,24.1l7.4,0.3l-0.1,3.8l-11.6-0.5L278.5,409.4L278.5,409.4z"/>
	<path class="st7" d="M290.8,437.8l0.1-3.8h1.2l0.5-20.3h-1.2l0.1-3.8l6.5,0.1l-0.1,3.8h-1.2l-0.5,20.3h1.2l-0.1,3.8L290.8,437.8z"
		/>
	<path class="st7" d="M314.4,433.3c0,3-1.3,4-3,4.7h-7.8c-1.7-0.6-3-1.7-3-4.7v-18.6c0-3,1.3-4,3-4.7h7.8c1.7,0.6,3,1.7,3,4.7V433.3
		L314.4,433.3z M310.2,414.4l-0.8-0.8h-3.7l-0.8,0.8v19.3l0.9,0.8h3.7l0.8-0.8L310.2,414.4L310.2,414.4z"/>
	<path class="st7" d="M331.4,427.3v6.1c0,3-1.3,4-3,4.7h-7.8c-1.7-0.6-3-1.7-3.1-4.6v-4.6h4.2v5l0.9,0.8h3.7l0.8-0.9v-6.6l-0.8-0.9
		l-6.1-1.8c-1.8-0.7-2.7-1.9-2.7-4.5v-5.2c0-3,1.3-4,3-4.7h7.8c1.7,0.6,3,1.7,3.1,4.6v4.5h-4.2v-4.8l-0.9-0.8h-3.7l-0.8,0.9v5.7
		l0.9,0.9l6.1,1.7C330.5,423.4,331.4,424.6,331.4,427.3L331.4,427.3z"/>
	<path class="st7" d="M339.5,409.8l4.2-0.1l0.9,24.1l7.4-0.3l0.1,3.8l-11.6,0.4L339.5,409.8L339.5,409.8z"/>
	<path class="st7" d="M352.6,409.3l11.9-0.7l0.2,3.8l-7.7,0.4l0.4,7.9l7.3-0.4l0.2,3.8l-7.3,0.4l0.5,8.6l7.9-0.4l0.2,3.8l-12.1,0.7
		L352.6,409.3L352.6,409.3z"/>
	<path class="st7" d="M378,429.2l-5.7,0.4l-0.7,6.5l-3.8,0.3l-0.2-2.8l3.7-25.4l4.4-0.3l7.5,24.6l0.2,2.8l-3.8,0.3L378,429.2
		L378,429.2z M372.7,425.8l4.3-0.3l-2.7-10.2H374L372.7,425.8L372.7,425.8z"/>
	<path class="st7" d="M388,434.8c-1.8-0.5-3.2-1.4-3.4-4.3l-1.8-18.5c-0.3-2.9,0.9-4.1,2.6-4.9l7.7-0.7c1.7,0.5,3.2,1.4,3.4,4.3
		l0.5,4.9l-4.2,0.4l-0.5-5.3l-0.9-0.8l-3.7,0.4l-0.8,0.9l1.8,19.2l0.9,0.8l3.7-0.3l0.8-0.9l-0.7-6.8l-2.7,0.2l-0.4-3.8l6.8-0.7
		l1,10.2c0.3,2.9-0.9,4.1-2.6,4.9L388,434.8L388,434.8z"/>
	<path class="st7" d="M405.5,428.8l0.9,0.8l3.5-0.4l0.8-0.9l-2.7-23.4l4.1-0.5l2.7,23.1c0.3,2.9-0.8,4.2-2.5,5l-7.5,0.9
		c-1.8-0.4-3.2-1.4-3.5-4.3l-2.7-23.1l4.2-0.5L405.5,428.8L405.5,428.8z"/>
	<path class="st7" d="M414.8,403.9l11.8-1.6l0.5,3.8l-7.6,1l1.1,7.9l7.3-1l0.5,3.8l-7.3,1l1.2,8.5l7.8-1.1l0.5,3.8l-12,1.6
		L414.8,403.9L414.8,403.9z"/>
	
		<linearGradient id="SVGID_7_" gradientUnits="userSpaceOnUse" x1="193.8" y1="531.25" x2="272.8" y2="531.25" gradientTransform="matrix(1 0 0 1 0 -318)">
		<stop  offset="0" style="stop-color:#FFEB2E"/>
		<stop  offset="1" style="stop-color:#D9C320"/>
	</linearGradient>
	<path class="st8" d="M257.2,213.2c0,13.2-10.7,23.9-23.9,23.9c-13.2,0-23.9-10.7-23.9-23.9c0-13.2,10.7-23.9,23.9-23.9
		C246.5,189.3,257.2,200,257.2,213.2z M239.1,183.8l-5.8-10l-5.8,10H239.1L239.1,183.8z M223.6,184.8l-10-5.8v11.6L223.6,184.8
		L223.6,184.8z M210.7,193.5h-11.6l5.8,10L210.7,193.5L210.7,193.5z M203.8,207.4l-10,5.8l10,5.8V207.4L203.8,207.4z M204.9,222.9
		l-5.8,10h11.6L204.9,222.9L204.9,222.9z M213.6,235.9v11.6l10-5.8L213.6,235.9L213.6,235.9z M227.5,242.7l5.8,10l5.8-10H227.5
		L227.5,242.7z M243.1,241.6l10,5.8v-11.6L243.1,241.6L243.1,241.6z M255.9,232.9h11.6l-5.8-10L255.9,232.9L255.9,232.9z M262.8,219
		l10-5.8l-10-5.8V219L262.8,219z M261.7,203.5l5.8-10h-11.6L261.7,203.5L261.7,203.5z M253,190.6V179l-10,5.8L253,190.6L253,190.6z"
		/>
</g>
</svg>
