<?xml version="1.0" encoding="utf-8"?>
<!-- Generator: Adobe Illustrator 25.0.0, SVG Export Plug-In . SVG Version: 6.00 Build 0)  -->
<svg version="1.1" id="OBJECTS" xmlns="http://www.w3.org/2000/svg" xmlns:xlink="http://www.w3.org/1999/xlink" x="0px" y="0px"
	 viewBox="0 0 630 630" style="enable-background:new 0 0 630 630;" xml:space="preserve">
<style type="text/css">
	.st0{fill:url(#SVGID_1_);}
	.st1{fill:url(#SVGID_2_);}
	.st2{fill:url(#SVGID_3_);}
	.st3{fill:#AF950A;}
	.st4{fill:#211435;}
	.st5{fill:#F2F2F2;}
	.st6{fill:#FFFFFF;}
	.st7{fill:url(#SVGID_4_);}
	.st8{fill:#1E529D;}
	.st9{fill:url(#SVGID_5_);}
</style>
<linearGradient id="SVGID_1_" gradientUnits="userSpaceOnUse" x1="315" y1="627.5" x2="315" y2="2.5">
	<stop  offset="0" style="stop-color:#1C4B90"/>
	<stop  offset="1" style="stop-color:#00A3E0"/>
</linearGradient>
<circle class="st0" cx="315" cy="315" r="312.5"/>
<g>
	
		<linearGradient id="SVGID_2_" gradientUnits="userSpaceOnUse" x1="108.6" y1="899.1125" x2="193.5" y2="899.1125" gradientTransform="matrix(1 0 0 1 0 -516)">
		<stop  offset="0" style="stop-color:#FFEB2E"/>
		<stop  offset="1" style="stop-color:#D9C320"/>
	</linearGradient>
	<polygon class="st1" points="193.5,356.9 108.6,345.3 127.2,378.6 108.6,408.9 193.5,420.9 	"/>
	
		<linearGradient id="SVGID_3_" gradientUnits="userSpaceOnUse" x1="436.5" y1="899.1125" x2="521.4" y2="899.1125" gradientTransform="matrix(1 0 0 1 0 -516)">
		<stop  offset="0" style="stop-color:#FFEB2E"/>
		<stop  offset="1" style="stop-color:#D9C320"/>
	</linearGradient>
	<polygon class="st2" points="436.5,356.9 521.4,345.3 502.8,378.6 521.4,408.9 436.5,420.9 	"/>
	<polygon class="st3" points="149.6,384.6 193.5,356.9 193.5,420.9 156.7,444.8 	"/>
	<polygon class="st3" points="480.4,384.6 436.5,356.9 436.5,420.9 473.3,444.8 	"/>
	<path class="st4" d="M191.9,139.2L191.9,139.2c-14.1,3.2-24.1,15.7-24.1,30.2v182.8c0,52.7,35.1,98.9,85.8,113.1l0,0
		c17.9,5,34.3,14.2,47.9,26.7l13.6,12.5l13.6-12.5c13.6-12.6,30.1-21.7,47.9-26.7l0,0c50.7-14.2,85.8-60.4,85.8-113.1V169.4
		c0-14.5-10-27-24.1-30.2l0,0C357.1,120.9,272.9,120.9,191.9,139.2L191.9,139.2z"/>
	<path class="st5" d="M444.9,252.4h-92.2V144.2c-12.6-0.9-25.2-1.4-37.8-1.4s-25.2,0.5-37.8,1.4v108.2h-92v75.5h92.2v127.6
		c13.1,5.9,25.4,13.9,35.9,23.7l1.8,1.7l1.8-1.7c10.6-9.8,22.8-17.7,35.9-23.7V327.9h92.2L444.9,252.4L444.9,252.4z"/>
	<path class="st6" d="M316.8,479.3c10.6-9.8,22.8-17.7,35.9-23.7V327.9h92.2v-75.5h-92.2V144.2c-12.6-0.9-25.2-1.4-37.8-1.4v338.1
		C315,480.9,316.8,479.3,316.8,479.3z"/>
	
		<linearGradient id="SVGID_4_" gradientUnits="userSpaceOnUse" x1="149.6" y1="935.5125" x2="480.5" y2="935.5125" gradientTransform="matrix(1 0 0 1 0 -516)">
		<stop  offset="0" style="stop-color:#FFEB2E"/>
		<stop  offset="1" style="stop-color:#D9C320"/>
	</linearGradient>
	<rect x="149.6" y="384.6" class="st7" width="330.9" height="69.8"/>
	<path class="st8" d="M201.6,423.6l-6.3-0.2l-1.6,7.1l-4.1-0.2l0.1-3.1l7.2-27.3l4.8,0.2l5.2,27.8l-0.1,3.1l-4.1-0.2
		C202.7,430.7,201.6,423.6,201.6,423.6z M196.3,419.3l4.7,0.2l-1.7-11.5h-0.4L196.3,419.3L196.3,419.3z"/>
	<path class="st8" d="M220.9,400.7l4.1,0.1l-0.9,30.6l-4-0.1l-6.1-18.4h-0.4l-0.5,18.2L209,431l0.9-30.6l4,0.1l6.1,18.4h0.4
		L220.9,400.7L220.9,400.7z"/>
	<path class="st8" d="M237.3,405.2l-0.6,26.5l-4.6-0.1l0.6-26.5l-5.5-0.1l0.1-4.2l15.6,0.3l-0.1,4.2L237.3,405.2L237.3,405.2z"/>
	<path class="st8" d="M255.5,418.9l-6-0.1l-0.2,13.1l-4.6-0.1l0.5-30.6l4.6,0.1l-0.2,13.3l6,0.1l0.2-13.3l4.6,0.1l-0.5,30.6
		l-4.6-0.1L255.5,418.9L255.5,418.9z"/>
	<path class="st8" d="M263.8,401.4l13.1,0.1l-0.1,4.2l-8.5-0.1l-0.1,8.7l8,0.1l-0.1,4.2l-8.1-0.1l-0.1,9.4l8.7,0.1l-0.1,4.2
		l-13.3-0.1L263.8,401.4L263.8,401.4z"/>
	<path class="st8" d="M280,401.6h4.6l-0.2,26.5l8.1,0.1v4.2l-12.8-0.1C279.8,432.3,280,401.6,280,401.6z"/>
	<path class="st8" d="M294.5,432.3v-4.2h1.3l0.1-22.3h-1.3v-4.2h7.2v4.2h-1.3l-0.1,22.3h1.3v4.2H294.5L294.5,432.3z"/>
	<path class="st8" d="M320,427.3c0,3.2-1.4,4.4-3.3,5.1h-8.5c-1.9-0.7-3.3-1.9-3.3-5.1v-20.4c0-3.2,1.4-4.4,3.3-5.1h8.5
		c1.9,0.7,3.3,1.9,3.3,5.1V427.3z M315.4,406.4l-0.9-0.9h-4.1l-0.9,0.9v21.2l0.9,0.9h4.1l0.9-0.9V406.4z"/>
	<path class="st8" d="M338.4,420.5v6.7c0.1,3.2-1.4,4.4-3.3,5.1l-8.5,0.1c-1.9-0.7-3.3-1.9-3.4-5.1v-5.1h4.6v5.5l1,0.9h4.1l0.9-1
		v-7.2l-0.9-1l-6.7-2c-2-0.8-3-2.1-3-4.9v-5.7c-0.1-3.2,1.4-4.4,3.3-5.1l8.5-0.1c1.9,0.7,3.3,1.9,3.4,5.1v4.9h-4.6v-5.3l-1-0.9h-4.1
		l-0.9,1v6.3l1,1l6.7,1.9C337.5,416.3,338.4,417.6,338.4,420.5L338.4,420.5z"/>
	<path class="st8" d="M347.9,401.6l4.6-0.1l0.3,26.5l8.1-0.1v4.2l-12.7,0.1L347.9,401.6L347.9,401.6z"/>
	<path class="st8" d="M362.8,401.4l13.1-0.2l0.1,4.2l-8.5,0.1l0.1,8.7l8-0.1l0.1,4.2l-8,0.1l0.1,9.4l8.7-0.1l0.1,4.2l-13.3,0.2
		L362.8,401.4L362.8,401.4z"/>
	<path class="st8" d="M389.9,424.5l-6.3,0.1l-1.2,7.1l-4.1,0.1l-0.1-3.1l5.6-27.6l4.8-0.1l6.8,27.4l0.1,3.1l-4.1,0.1L389.9,424.5
		L389.9,424.5z M384.4,420.5l4.7-0.1l-2.4-11.4h-0.4L384.4,420.5L384.4,420.5z"/>
	<path class="st8" d="M400.7,431.4c-1.9-0.6-3.4-1.8-3.5-5l-0.6-20.4c-0.1-3.2,1.3-4.5,3.2-5.2l8.5-0.2c1.9,0.6,3.4,1.8,3.5,5
		l0.1,5.5l-4.6,0.1l-0.2-5.8l-1-0.9l-4.1,0.1l-0.9,1l0.6,21.2l1,0.9l4.1-0.1l0.9-1l-0.2-7.5l-2.9,0.1l-0.1-4.2l7.5-0.2l0.3,11.3
		c0.1,3.2-1.3,4.5-3.2,5.2L400.7,431.4L400.7,431.4z"/>
	<path class="st8" d="M420.5,426.1l1,0.9l3.9-0.1l0.9-1l-0.9-25.9l4.5-0.2l0.9,25.5c0.1,3.2-1.3,4.5-3.1,5.2l-8.3,0.3
		c-1.9-0.6-3.4-1.8-3.5-5l-0.9-25.5l4.6-0.2L420.5,426.1L420.5,426.1z"/>
	<path class="st8" d="M433,399.7l13-0.7l0.2,4.2l-8.5,0.4l0.5,8.7l8-0.4l0.2,4.2l-8,0.4l0.5,9.4l8.7-0.5l0.2,4.2l-13.3,0.7
		L433,399.7L433,399.7z"/>
	
		<linearGradient id="SVGID_5_" gradientUnits="userSpaceOnUse" x1="272.4" y1="808.4125" x2="359.1" y2="808.4125" gradientTransform="matrix(1 0 0 1 0 -516)">
		<stop  offset="0" style="stop-color:#AF950A"/>
		<stop  offset="1" style="stop-color:#D9C320"/>
	</linearGradient>
	<path class="st9" d="M342,292.4c0,14.5-11.7,26.2-26.2,26.2s-26.2-11.7-26.2-26.2s11.7-26.2,26.2-26.2
		C330.2,266.2,342,277.9,342,292.4z M322.1,260l-6.3-11l-6.3,11H322.1L322.1,260z M305,261.2l-11-6.3v12.7L305,261.2L305,261.2z
		 M290.9,270.7h-12.7l6.3,11L290.9,270.7L290.9,270.7z M283.4,286.1l-11,6.3l11,6.3V286.1L283.4,286.1z M284.5,303.1l-6.3,11h12.7
		L284.5,303.1L284.5,303.1z M294.1,317.3V330l11-6.3L294.1,317.3L294.1,317.3z M309.4,324.8l6.3,11l6.3-11H309.4L309.4,324.8z
		 M326.4,323.6l11,6.3v-12.7L326.4,323.6L326.4,323.6z M340.6,314.1h12.7l-6.3-11L340.6,314.1L340.6,314.1z M348.1,298.7l11-6.3
		l-11-6.3V298.7L348.1,298.7z M346.9,281.7l6.3-11h-12.7L346.9,281.7L346.9,281.7z M337.4,267.5v-12.7l-11,6.3L337.4,267.5
		L337.4,267.5z"/>
</g>
</svg>
