<?xml version="1.0" encoding="utf-8"?>
<!-- Generator: Adobe Illustrator 25.0.0, SVG Export Plug-In . SVG Version: 6.00 Build 0)  -->
<svg version="1.1" id="OBJECTS" xmlns="http://www.w3.org/2000/svg" xmlns:xlink="http://www.w3.org/1999/xlink" x="0px" y="0px"
	 viewBox="0 0 630 630" style="enable-background:new 0 0 630 630;" xml:space="preserve">
<style type="text/css">
	.st0{fill:url(#SVGID_1_);}
	.st1{fill:url(#SVGID_2_);}
	.st2{fill:#F2F2F2;}
	.st3{fill:#FFFFFF;}
	.st4{fill:url(#SVGID_3_);}
	.st5{fill:url(#SVGID_4_);}
	.st6{fill:url(#SVGID_5_);}
	.st7{fill:url(#SVGID_6_);}
	.st8{fill:url(#SVGID_7_);}
	.st9{fill:url(#SVGID_8_);}
	.st10{fill:url(#SVGID_9_);}
	.st11{fill:url(#SVGID_10_);}
	.st12{fill:url(#SVGID_11_);}
	.st13{fill:url(#SVGID_12_);}
</style>
<linearGradient id="SVGID_1_" gradientUnits="userSpaceOnUse" x1="315" y1="627.5" x2="315" y2="2.5">
	<stop  offset="0" style="stop-color:#1C4B90"/>
	<stop  offset="1" style="stop-color:#00A3E0"/>
</linearGradient>
<circle class="st0" cx="315" cy="315" r="312.5"/>
<g>
	
		<linearGradient id="SVGID_2_" gradientUnits="userSpaceOnUse" x1="153.7" y1="67" x2="476.3" y2="67" gradientTransform="matrix(1 0 0 -1 0 382)">
		<stop  offset="0" style="stop-color:#1E529D"/>
		<stop  offset="0.42" style="stop-color:#143569"/>
		<stop  offset="1" style="stop-color:#091025"/>
	</linearGradient>
	<path class="st1" d="M183.8,150.4l-30.1,11.9l8.4,80.6c11,105.1,66.7,200.4,152.9,261.6l0,0c86.2-61.2,141.9-156.5,152.9-261.6
		l8.4-80.6l-30.1-11.9C361.9,117.2,268.1,117.2,183.8,150.4L183.8,150.4z"/>
	<path class="st2" d="M450.3,170.2c-43.3-17.1-88.8-25.7-135.3-25.7c-33.7,0-66.9,4.6-99.1,13.6c4.4,10.6,9.3,21,14.7,31.1
		c21.8,41.4,49.9,79.3,80.8,114.4c27.2,30.9,56.7,60.3,88.7,86.2c27.7-44.6,45.4-95.3,51-148.6l6.2-59.4
		C457.8,176.8,454.9,172,450.3,170.2L450.3,170.2z"/>
	<path class="st3" d="M400.1,389.8c27.7-44.6,45.4-95.3,51-148.6l6.2-59.4c0.5-5-2.4-9.7-7-11.5c-43.3-17.1-88.8-25.8-135.3-25.8
		v163.2C341.2,337,369.4,365.1,400.1,389.8L400.1,389.8z"/>
	
		<linearGradient id="SVGID_3_" gradientUnits="userSpaceOnUse" x1="287.7584" y1="-50.2992" x2="333.8163" y2="-50.2992" gradientTransform="matrix(1 0 0 -1 0 382)">
		<stop  offset="0" style="stop-color:#FFEB2E"/>
		<stop  offset="1" style="stop-color:#D9C320"/>
	</linearGradient>
	<path class="st4" d="M318.1,409.8c3.3-1.4,7.3,6.2,10.6,15c0.9,2.1,1.6,4.4,2.3,6.6c0.4,1.1,0.7,2.3,1,3.4c0.3,1.1,0.6,2.1,0.8,3.2
		c1,4.2,1.4,8,0.2,10.4c-1.2,2.4-4.4,4.2-8.9,5.4c-1.1,0.3-2.3,0.5-3.6,0.7c-1.3,0.2-2.5,0.3-3.9,0.4c-2.7,0.1-5.5,0.1-8.3-0.1
		c-11-1-21.1-5.1-20.6-8.7s10.1-3.4,19.1-3c4.6,0.1,9,0.5,12.5,0.6c3.3,0.1,5.5,0.2,5.5,0.2s-1.1-2-2.5-4.9c-1.4-2.8-3-7-4.2-11.1
		C315.7,419.6,314.8,411.2,318.1,409.8L318.1,409.8z"/>
	
		<linearGradient id="SVGID_4_" gradientUnits="userSpaceOnUse" x1="263.0446" y1="-27.4006" x2="302.0479" y2="-27.4006" gradientTransform="matrix(1 0 0 -1 0 382)">
		<stop  offset="0" style="stop-color:#FFEB2E"/>
		<stop  offset="1" style="stop-color:#D9C320"/>
	</linearGradient>
	<path class="st5" d="M292.4,390.3c1.4-0.4,3,1.2,4.3,3.9c1.3,2.7,2.5,6.6,3.5,10.6c1.8,8.2,2.9,17.4,0,20.9
		c-2.9,3.4-12.6,3.6-21.3,1.5c-4.5-1-8.5-2.6-11.5-4.2c-2.9-1.7-4.7-3.4-4.3-4.9c0.8-3,8.8-2,16.3-0.6c3.7,0.7,7.6,1.4,10.3,2
		c2.8,0.6,4.6,1,4.6,1s-0.6-1.8-1.3-4.5c-0.7-2.8-1.7-6.3-2.2-10C289.6,398.4,289.5,391.1,292.4,390.3L292.4,390.3z"/>
	
		<linearGradient id="SVGID_5_" gradientUnits="userSpaceOnUse" x1="244.2638" y1="-4.7627" x2="277.9193" y2="-4.7627" gradientTransform="matrix(1 0 0 -1 0 382)">
		<stop  offset="0" style="stop-color:#FFEB2E"/>
		<stop  offset="1" style="stop-color:#D9C320"/>
	</linearGradient>
	<path class="st6" d="M271.6,370.3c1.3-0.2,2.4,1.3,3.4,3.8c1,2.4,1.8,5.8,2.3,9.5c0.9,7.3,1.1,15.3-1.8,18
		c-2.8,2.6-11.1,1.9-18.4-0.6c-3.7-1.2-7.1-2.8-9.5-4.4c-2.3-1.6-3.7-3.3-3.2-4.6c1-2.5,7.5-1,14,0.6c3.2,0.9,6.3,1.8,8.7,2.6
		c2.3,0.8,3.9,1.3,3.9,1.3s-0.4-1.6-0.8-4s-0.8-5.6-1.1-8.8C268.5,377.3,269,370.7,271.6,370.3L271.6,370.3z"/>
	
		<linearGradient id="SVGID_6_" gradientUnits="userSpaceOnUse" x1="232.3086" y1="13.8333" x2="260.296" y2="13.8333" gradientTransform="matrix(1 0 0 -1 0 382)">
		<stop  offset="0" style="stop-color:#FFEB2E"/>
		<stop  offset="1" style="stop-color:#D9C320"/>
	</linearGradient>
	<path class="st7" d="M256,354.6c2.1-0.2,3.7,5.2,4.1,11.3c0.4,6.1,0,12.8-2.5,14.8s-9.3,0.9-15.2-1.5c-5.8-2.4-11-5.9-10-8
		c0.9-2,6.3-0.6,11.5,1.1c2.6,0.9,5.1,1.9,7,2.6c1.9,0.8,3.2,1.3,3.2,1.3s-0.2-1.3-0.4-3.3s-0.4-4.7-0.4-7.4
		C253.2,360.1,253.8,354.8,256,354.6L256,354.6z"/>
	
		<linearGradient id="SVGID_7_" gradientUnits="userSpaceOnUse" x1="222.0005" y1="31.9561" x2="245.5109" y2="31.9561" gradientTransform="matrix(1 0 0 -1 0 382)">
		<stop  offset="0" style="stop-color:#FFEB2E"/>
		<stop  offset="1" style="stop-color:#D9C320"/>
	</linearGradient>
	<path class="st8" d="M242.6,338.7c1.8-0.1,2.8,4.6,2.9,9.7c0.2,5.1-0.6,10.7-2.8,12.3s-7.8,0.2-12.6-2c-4.8-2.3-8.8-5.5-7.9-7.1
		c0.9-1.6,5.3-0.2,9.5,1.5c2.1,0.9,4.2,1.8,5.8,2.5c1.5,0.7,2.6,1.2,2.6,1.2s-0.1-1.1-0.2-2.8c-0.1-1.7-0.2-3.9,0-6.2
		C240.1,343.2,240.8,338.7,242.6,338.7L242.6,338.7z"/>
	
		<linearGradient id="SVGID_8_" gradientUnits="userSpaceOnUse" x1="212.9989" y1="48.5009" x2="234.2163" y2="48.5009" gradientTransform="matrix(1 0 0 -1 0 382)">
		<stop  offset="0" style="stop-color:#FFEB2E"/>
		<stop  offset="1" style="stop-color:#D9C320"/>
	</linearGradient>
	<path class="st9" d="M232,323.4c1.6,0,2.4,4.2,2.2,8.8c-0.2,4.6-1.1,9.6-3.1,10.9s-7-0.1-11.1-2.4c-4.2-2.3-7.6-5.3-6.8-6.7
		c0.8-1.4,4.8,0,8.5,1.7c3.7,1.7,7.2,3.7,7.2,3.7s-0.1-4.1,0.3-8.1C229.6,327.3,230.4,323.4,232,323.4L232,323.4z"/>
	
		<linearGradient id="SVGID_9_" gradientUnits="userSpaceOnUse" x1="207.3551" y1="63.6054" x2="223.7877" y2="63.6054" gradientTransform="matrix(1 0 0 -1 0 382)">
		<stop  offset="0" style="stop-color:#FFEB2E"/>
		<stop  offset="1" style="stop-color:#D9C320"/>
	</linearGradient>
	<path class="st10" d="M222.3,310.7c1.2,0.1,1.7,3.3,1.4,6.9c-0.3,3.5-1.2,7.3-2.8,8.2s-5.3-0.4-8.4-2.3c-3.1-1.8-5.7-4.2-5-5.3
		s3.7,0.2,6.5,1.6s5.4,3.1,5.4,3.1s0.1-3.1,0.5-6.2C220.2,313.6,221,310.6,222.3,310.7z"/>
	
		<linearGradient id="SVGID_10_" gradientUnits="userSpaceOnUse" x1="202.9198" y1="77.1575" x2="215.3705" y2="77.1575" gradientTransform="matrix(1 0 0 -1 0 382)">
		<stop  offset="0" style="stop-color:#FFEB2E"/>
		<stop  offset="1" style="stop-color:#D9C320"/>
	</linearGradient>
	<path class="st11" d="M211.8,308.1c0,0,0.1-2.3,0.5-4.6c0.4-2.3,1-4.5,2-4.4c1.9,0.1,1,10-1.5,11.3c-2.5,1.3-10.9-4.5-9.8-6.1
		c0.5-0.8,2.8,0.2,4.8,1.4C209.9,306.8,211.8,308.1,211.8,308.1L211.8,308.1z"/>
	
		<linearGradient id="SVGID_11_" gradientUnits="userSpaceOnUse" x1="334.4" y1="152.4" x2="405.8" y2="152.4" gradientTransform="matrix(1 0 0 -1 0 382)">
		<stop  offset="0" style="stop-color:#FFEB2E"/>
		<stop  offset="1" style="stop-color:#D9C320"/>
	</linearGradient>
	<path class="st12" d="M405.8,229.6c0,19.7-16,35.7-35.7,35.7s-35.7-16-35.7-35.7s16-35.7,35.7-35.7
		C389.8,193.9,405.8,209.9,405.8,229.6z"/>
	
		<linearGradient id="SVGID_12_" gradientUnits="userSpaceOnUse" x1="300.818" y1="152.2" x2="439.4361" y2="152.2" gradientTransform="matrix(1 0 0 -1 0 382)">
		<stop  offset="0" style="stop-color:#FFEB2E"/>
		<stop  offset="1" style="stop-color:#D9C320"/>
	</linearGradient>
	<path class="st13" d="M438.4,241.7l-27-10l0,0l28-2l-28-2l0,0l27-10l-28.7-0.1l0,0l25.6-11.5l-27,7.7l0,0l21.9-18.6l-27.1,9.7l0,0
		l20.2-19.6l-22.8,16.5l0,0l14.3-25l-22.1,18.4l0,0l12.3-25.3l-15.8,23.3l0,0l4.9-28.4l-14.5,24.8l0,0l2.9-28l-6.9,27.2l0,0
		l-5.1-28.3l-5.1,28.3l0,0l-6.9-27.2l2.9,28l0,0l-14.5-24.8l4.9,28.4l0,0L336,169.9l12.3,25.3l0,0l-22.1-18.4l14.3,25l0,0
		l-22.8-16.5l20.2,19.6l0,0l-27.6-9.9l21.9,18.6l0,0l-27-7.7l25.6,11.5l0,0l-28.7,0.1l27,10l0,0l-28,2l28,2l0,0l-27,10l28.7,0.1l0,0
		l-25.6,11.5l27-7.7l0,0L310.3,264l27.1-9.7l0,0l-20.2,19.6l22.8-16.5l0,0l-14.3,25l22.1-18.4l0,0l-12.3,25.3l15.8-23.3l0,0
		l-4.9,28.4L361,270l0,0l-2.9,28l6.9-27.2l0,0l5.1,28.3l5.1-28.3l0,0l6.9,27.2l-2.9-28l0,0l14.5,24.8l-4.9-28.4l0,0l15.8,23.3
		l-12.3-25.3l0,0l22.1,18.4l-14.3-25l0,0l22.8,16.5l-20.2-19.6l0,0l27.1,9.7l-21.9-18.6l0,0l27,7.7L409.3,242l0,0L438.4,241.7
		L438.4,241.7z M409.3,229.6c0,21.6-17.6,39.2-39.2,39.2s-39.2-17.6-39.2-39.2s17.6-39.2,39.2-39.2
		C391.7,190.4,409.3,208,409.3,229.6z"/>
</g>
</svg>
