<?xml version="1.0" encoding="utf-8"?>
<!-- Generator: Adobe Illustrator 25.0.0, SVG Export Plug-In . SVG Version: 6.00 Build 0)  -->
<svg version="1.1" id="Capa_1" xmlns="http://www.w3.org/2000/svg" xmlns:xlink="http://www.w3.org/1999/xlink" x="0px" y="0px"
	 viewBox="0 0 46 46" style="enable-background:new 0 0 46 46;" xml:space="preserve">
<style type="text/css">
	.st0{fill:none;stroke:#FFEC2D;stroke-width:3;}
</style>
<path class="st0" d="M22.2,38C22.2,38,22.2,38,22.2,38C22.2,38,22.2,38,22.2,38z M24.5,38.5C24.5,38.5,24.5,38.5,24.5,38.5
	C24.5,38.5,24.5,38.5,24.5,38.5z M23.8,8C23.8,8,23.8,8,23.8,8C23.8,8,23.8,8,23.8,8z M21.5,7.5C21.5,7.5,21.5,7.5,21.5,7.5
	C21.5,7.5,21.5,7.5,21.5,7.5z M16.8,27.9h4.7v9.7c0,0,0,0,0,0.1c0,0.4,0,0.8,0,1.1c0,0.2,0.1,0.4,0.2,0.7c0.1,0.3,0.5,0.8,1.2,1
	c0.7,0.1,1.2-0.2,1.5-0.4c0.2-0.2,0.4-0.4,0.5-0.6c0.2-0.3,0.3-0.6,0.5-1c0,0,0,0,0-0.1l7.1-15.3c0,0,0-0.1,0-0.1
	c0.3-0.6,0.5-1.1,0.7-1.6c0.2-0.5,0.3-1.3-0.2-2.1c-0.5-0.8-1.3-1-1.8-1.1c-0.5-0.1-1.1-0.1-1.8-0.1c0,0-0.1,0-0.1,0h-4.7V8.4
	c0,0,0,0,0-0.1c0-0.4,0-0.8,0-1.1c0-0.2-0.1-0.4-0.2-0.7c-0.1-0.3-0.5-0.8-1.2-1c-0.7-0.1-1.2,0.2-1.5,0.4c-0.2,0.2-0.4,0.4-0.5,0.6
	c-0.2,0.3-0.3,0.6-0.5,1c0,0,0,0,0,0.1l-7.1,15.3c0,0,0,0.1,0,0.1c-0.3,0.6-0.5,1.1-0.7,1.6c-0.2,0.5-0.3,1.3,0.2,2.1
	c0.5,0.8,1.3,1,1.8,1.1C15.4,27.9,16,27.9,16.8,27.9C16.7,27.9,16.7,27.9,16.8,27.9z"/>
</svg>
